<svg width="141" height="19" viewBox="0 0 141 19" fill="none" xmlns="http://www.w3.org/2000/svg">
<path d="M0.951904 18.7923V0.181641H3.60298V7.93609H14.5608V0.181641H17.2119V18.7923H14.5608V11.0379H3.60298V18.7923H0.951904Z" fill="black"/>
<path d="M18.3063 18.7923V0.181641H20.9352V18.7923H18.3063Z" fill="black"/>
<path d="M61.6933 18.7924C61.1484 18.7924 60.6476 18.6373 60.191 18.3271C59.7345 18.017 59.3736 17.5948 59.1085 17.0606C58.8434 16.5264 58.7109 15.9405 58.7109 15.3029V3.67125C58.7109 3.03366 58.8434 2.44777 59.1085 1.91358C59.3736 1.37938 59.7345 0.957196 60.191 0.647018C60.6476 0.33684 61.1484 0.181757 61.6933 0.181757H74.5732V3.30938H62.1572C61.9216 3.30938 61.7301 3.39554 61.5828 3.56786C61.4356 3.72295 61.3619 3.93835 61.3619 4.21407V14.7601C61.3619 15.0358 61.4356 15.2598 61.5828 15.4322C61.7301 15.5872 61.9216 15.6648 62.1572 15.6648H74.5732V18.7924H61.6933Z" fill="#14A800"/>
<path d="M78.4478 18.8183C77.9028 18.8183 77.4021 18.6632 76.9455 18.353C76.4889 18.0428 76.1281 17.6206 75.863 17.0864C75.5979 16.5522 75.4653 15.9664 75.4653 15.3288V3.6971C75.4653 3.05951 75.5979 2.47362 75.863 1.93943C76.1281 1.40523 76.4889 0.983044 76.9455 0.672866C77.4021 0.362688 77.9028 0.207601 78.4478 0.207601H88.3894C88.9343 0.207601 89.4277 0.362688 89.8695 0.672866C90.3261 0.983044 90.687 1.40523 90.9521 1.93943C91.2319 2.47362 91.3718 3.05951 91.3718 3.6971V15.3288C91.3718 15.9664 91.2319 16.5522 90.9521 17.0864C90.687 17.6206 90.3261 18.0428 89.8695 18.353C89.4277 18.6632 88.9343 18.8183 88.3894 18.8183H78.4478ZM78.5141 15.6906H88.301C88.4041 15.6906 88.4925 15.6476 88.5661 15.5614C88.6545 15.4752 88.6986 15.3632 88.6986 15.2254V3.80049C88.6986 3.66263 88.6545 3.55062 88.5661 3.46446C88.4925 3.3783 88.4041 3.33523 88.301 3.33523H78.5141C78.411 3.33523 78.3152 3.3783 78.2269 3.46446C78.1532 3.55062 78.1164 3.66263 78.1164 3.80049V15.2254C78.1164 15.3632 78.1532 15.4752 78.2269 15.5614C78.3152 15.6476 78.411 15.6906 78.5141 15.6906Z" fill="black"/>
<path d="M92.4381 18.8183V0.207601H105.362C105.907 0.207601 106.401 0.362688 106.842 0.672866C107.299 0.983044 107.66 1.40523 107.925 1.93943C108.205 2.47362 108.345 3.05951 108.345 3.6971V15.3288C108.345 15.9664 108.205 16.5522 107.925 17.0864C107.66 17.6206 107.299 18.0428 106.842 18.353C106.401 18.6632 105.907 18.8183 105.362 18.8183H92.4381ZM95.4869 15.6906H105.274C105.377 15.6906 105.465 15.6476 105.539 15.5614C105.627 15.4752 105.671 15.3632 105.671 15.2254V3.80049C105.671 3.66263 105.627 3.55062 105.539 3.46446C105.465 3.3783 105.377 3.33523 105.274 3.33523H95.4869C95.369 3.33523 95.2659 3.3783 95.1776 3.46446C95.1039 3.55062 95.0671 3.66263 95.0671 3.80049V15.2254C95.0671 15.3632 95.1039 15.4752 95.1776 15.5614C95.2659 15.6476 95.369 15.6906 95.4869 15.6906Z" fill="black"/>
<path fill-rule="evenodd" clip-rule="evenodd" d="M109.554 18.7924V15.6648H112.227H124.157V18.7924H109.554ZM112.227 11.038H124.157V7.9362H112.227H109.554V8.0121V11.038H112.227ZM124.157 3.30938H112.227H109.554V0.181757H124.157V3.30938Z" fill="black"/>
<path fill-rule="evenodd" clip-rule="evenodd" d="M39.2717 18.7923V15.6647H41.9449H53.8748V18.7923H39.2717ZM53.8748 11.0379H41.9449H39.2717V7.93609H41.9449H53.8748V11.0379ZM41.9449 3.30927H53.8748V0.181641H39.2717V3.30927H41.9449Z" fill="black"/>
<path fill-rule="evenodd" clip-rule="evenodd" d="M133.171 12.3164L137.823 18.8183H140.805V18.0945L136.635 12.3077L137.889 12.3045C138.434 12.3045 138.927 12.1494 139.369 11.8393C139.826 11.5291 140.187 11.1069 140.452 10.5727C140.732 10.0385 140.872 9.46123 140.872 8.84088V3.72295C140.872 3.08536 140.732 2.50809 140.452 1.99113C140.187 1.45693 139.826 1.03474 139.369 0.724565C138.927 0.397156 138.434 0.233453 137.889 0.233453H124.965V3.33523H128.014H137.801C137.904 3.33523 137.992 3.38693 138.066 3.49032C138.154 3.57648 138.198 3.67987 138.198 3.80049V8.71164C138.198 8.8495 138.154 8.9615 138.066 9.04766C137.992 9.13382 137.904 9.1769 137.801 9.1769H128.014H124.965V18.8183H127.616V12.3304L133.171 12.3164Z" fill="black"/>
<path fill-rule="evenodd" clip-rule="evenodd" d="M30.4226 12.2906L35.0746 18.7925H38.0571V18.0687L33.8865 12.2819L35.1409 12.2787C35.6859 12.2787 36.1793 12.1236 36.6211 11.8135C37.0777 11.5033 37.4385 11.0811 37.7036 10.5469C37.9835 10.0127 38.1234 9.43543 38.1234 8.81508V3.69714C38.1234 3.05955 37.9835 2.48228 37.7036 1.96531C37.4385 1.43112 37.0777 1.00893 36.6211 0.698754C36.1793 0.371345 35.6859 0.207639 35.1409 0.207639H22.2169V3.30942H25.2656H35.0525C35.1556 3.30942 35.244 3.36111 35.3177 3.46451C35.406 3.55067 35.4502 3.65406 35.4502 3.77468V8.68583C35.4502 8.82369 35.406 8.9357 35.3177 9.02186C35.244 9.10802 35.1556 9.1511 35.0525 9.1511H25.2656H22.2169V18.7925H24.868V12.3046L30.4226 12.2906Z" fill="black"/>
</svg>
