<svg width="141" height="32" viewBox="0 0 141 32" fill="none" xmlns="http://www.w3.org/2000/svg">
<path d="M0.951904 18.7923V0.181641H3.60298V7.93609H14.5608V0.181641H17.2119V18.7923H14.5608V11.0379H3.60298V18.7923H0.951904Z" fill="black"/>
<path d="M18.3063 18.7923V0.181641H20.9352V18.7923H18.3063Z" fill="black"/>
<path d="M61.6933 18.7924C61.1484 18.7924 60.6476 18.6373 60.191 18.3271C59.7345 18.017 59.3736 17.5948 59.1085 17.0606C58.8434 16.5264 58.7109 15.9405 58.7109 15.3029V3.67125C58.7109 3.03366 58.8434 2.44777 59.1085 1.91358C59.3736 1.37938 59.7345 0.957196 60.191 0.647018C60.6476 0.33684 61.1484 0.181757 61.6933 0.181757H74.5732V3.30938H62.1572C61.9216 3.30938 61.7301 3.39554 61.5828 3.56786C61.4356 3.72295 61.3619 3.93835 61.3619 4.21407V14.7601C61.3619 15.0358 61.4356 15.2598 61.5828 15.4322C61.7301 15.5872 61.9216 15.6648 62.1572 15.6648H74.5732V18.7924H61.6933Z" fill="#14A800"/>
<path d="M78.4478 18.8183C77.9028 18.8183 77.4021 18.6632 76.9455 18.353C76.4889 18.0428 76.1281 17.6206 75.863 17.0864C75.5979 16.5522 75.4653 15.9664 75.4653 15.3288V3.6971C75.4653 3.05951 75.5979 2.47362 75.863 1.93943C76.1281 1.40523 76.4889 0.983044 76.9455 0.672866C77.4021 0.362688 77.9028 0.207601 78.4478 0.207601H88.3894C88.9343 0.207601 89.4277 0.362688 89.8695 0.672866C90.3261 0.983044 90.687 1.40523 90.9521 1.93943C91.2319 2.47362 91.3718 3.05951 91.3718 3.6971V15.3288C91.3718 15.9664 91.2319 16.5522 90.9521 17.0864C90.687 17.6206 90.3261 18.0428 89.8695 18.353C89.4277 18.6632 88.9343 18.8183 88.3894 18.8183H78.4478ZM78.5141 15.6906H88.301C88.4041 15.6906 88.4925 15.6476 88.5661 15.5614C88.6545 15.4752 88.6986 15.3632 88.6986 15.2254V3.80049C88.6986 3.66263 88.6545 3.55062 88.5661 3.46446C88.4925 3.3783 88.4041 3.33523 88.301 3.33523H78.5141C78.411 3.33523 78.3152 3.3783 78.2269 3.46446C78.1532 3.55062 78.1164 3.66263 78.1164 3.80049V15.2254C78.1164 15.3632 78.1532 15.4752 78.2269 15.5614C78.3152 15.6476 78.411 15.6906 78.5141 15.6906Z" fill="black"/>
<path d="M92.4381 18.8183V0.207601H105.362C105.907 0.207601 106.401 0.362688 106.842 0.672866C107.299 0.983044 107.66 1.40523 107.925 1.93943C108.205 2.47362 108.345 3.05951 108.345 3.6971V15.3288C108.345 15.9664 108.205 16.5522 107.925 17.0864C107.66 17.6206 107.299 18.0428 106.842 18.353C106.401 18.6632 105.907 18.8183 105.362 18.8183H92.4381ZM95.4869 15.6906H105.274C105.377 15.6906 105.465 15.6476 105.539 15.5614C105.627 15.4752 105.671 15.3632 105.671 15.2254V3.80049C105.671 3.66263 105.627 3.55062 105.539 3.46446C105.465 3.3783 105.377 3.33523 105.274 3.33523H95.4869C95.369 3.33523 95.2659 3.3783 95.1776 3.46446C95.1039 3.55062 95.0671 3.66263 95.0671 3.80049V15.2254C95.0671 15.3632 95.1039 15.4752 95.1776 15.5614C95.2659 15.6476 95.369 15.6906 95.4869 15.6906Z" fill="black"/>
<path fill-rule="evenodd" clip-rule="evenodd" d="M109.554 18.7924V15.6648H112.227H124.157V18.7924H109.554ZM112.227 11.038H124.157V7.9362H112.227H109.554V8.0121V11.038H112.227ZM124.157 3.30938H112.227H109.554V0.181757H124.157V3.30938Z" fill="black"/>
<path fill-rule="evenodd" clip-rule="evenodd" d="M39.2717 18.7923V15.6647H41.9449H53.8748V18.7923H39.2717ZM53.8748 11.0379H41.9449H39.2717V7.93609H41.9449H53.8748V11.0379ZM41.9449 3.30927H53.8748V0.181641H39.2717V3.30927H41.9449Z" fill="black"/>
<path fill-rule="evenodd" clip-rule="evenodd" d="M133.171 12.3164L137.823 18.8183H140.805V18.0945L136.635 12.3077L137.889 12.3045C138.434 12.3045 138.927 12.1494 139.369 11.8393C139.826 11.5291 140.187 11.1069 140.452 10.5727C140.732 10.0385 140.872 9.46123 140.872 8.84088V3.72295C140.872 3.08536 140.732 2.50809 140.452 1.99113C140.187 1.45693 139.826 1.03474 139.369 0.724565C138.927 0.397156 138.434 0.233453 137.889 0.233453H124.965V3.33523H128.014H137.801C137.904 3.33523 137.992 3.38693 138.066 3.49032C138.154 3.57648 138.198 3.67987 138.198 3.80049V8.71164C138.198 8.8495 138.154 8.9615 138.066 9.04766C137.992 9.13382 137.904 9.1769 137.801 9.1769H128.014H124.965V18.8183H127.616V12.3304L133.171 12.3164Z" fill="black"/>
<path fill-rule="evenodd" clip-rule="evenodd" d="M30.4226 12.2906L35.0746 18.7925H38.0571V18.0687L33.8865 12.2819L35.1409 12.2787C35.6859 12.2787 36.1793 12.1236 36.6211 11.8135C37.0777 11.5033 37.4385 11.0811 37.7036 10.5469C37.9835 10.0127 38.1234 9.43543 38.1234 8.81508V3.69714C38.1234 3.05955 37.9835 2.48228 37.7036 1.96531C37.4385 1.43112 37.0777 1.00893 36.6211 0.698754C36.1793 0.371345 35.6859 0.207639 35.1409 0.207639H22.2169V3.30942H25.2656H35.0525C35.1556 3.30942 35.244 3.36111 35.3177 3.46451C35.406 3.55067 35.4502 3.65406 35.4502 3.77468V8.68583C35.4502 8.82369 35.406 8.9357 35.3177 9.02186C35.244 9.10802 35.1556 9.1511 35.0525 9.1511H25.2656H22.2169V18.7925H24.868V12.3046L30.4226 12.2906Z" fill="black"/>
<path d="M2.65373 28.9942L4.37445 23.2253H4.94048L2.88014 29.8184H2.46354L2.65373 28.9942ZM0.905837 23.2253L2.6175 28.9942L2.80769 29.8184H2.39562L0.33981 23.2253H0.905837ZM6.37592 24.9188V29.8184H5.87329V24.9188H6.37592ZM5.79631 23.5106C5.79631 23.4019 5.82499 23.3128 5.88235 23.2434C5.94272 23.1709 6.02574 23.1347 6.1314 23.1347C6.23404 23.1347 6.31404 23.1709 6.37139 23.2434C6.43177 23.3128 6.46196 23.4019 6.46196 23.5106C6.46196 23.6102 6.43177 23.6947 6.37139 23.7641C6.31404 23.8336 6.23404 23.8683 6.1314 23.8683C6.02574 23.8683 5.94272 23.8336 5.88235 23.7641C5.82499 23.6947 5.79631 23.6102 5.79631 23.5106ZM10.4468 28.8674V22.863H10.9494V29.8184H10.4785L10.4468 28.8674ZM7.60307 27.5995V27.1422C7.60307 26.7316 7.63929 26.3799 7.71175 26.0871C7.78722 25.7913 7.89438 25.5513 8.03325 25.3671C8.17211 25.183 8.33966 25.0471 8.53588 24.9596C8.73512 24.872 8.95701 24.8283 9.20153 24.8283C9.44002 24.8283 9.64831 24.8735 9.82642 24.9641C10.0076 25.0517 10.1615 25.1769 10.2883 25.34C10.4151 25.503 10.5177 25.6977 10.5962 25.9241C10.6747 26.1475 10.7321 26.398 10.7683 26.6758V28.1384C10.7381 28.398 10.6838 28.6365 10.6053 28.8538C10.5298 29.0712 10.4272 29.2584 10.2974 29.4153C10.1706 29.5723 10.0151 29.6946 9.83095 29.7821C9.6468 29.8697 9.43247 29.9135 9.18794 29.9135C8.94644 29.9135 8.72758 29.8667 8.53135 29.7731C8.33815 29.6795 8.17211 29.5376 8.03325 29.3474C7.89438 29.1572 7.78722 28.9172 7.71175 28.6274C7.63929 28.3376 7.60307 27.995 7.60307 27.5995ZM8.11023 27.1422V27.5995C8.11023 27.9135 8.13287 28.1852 8.17815 28.4146C8.22645 28.644 8.2989 28.8342 8.39551 28.9852C8.49513 29.1331 8.6189 29.2448 8.76682 29.3203C8.91474 29.3927 9.08983 29.4289 9.29209 29.4289C9.54869 29.4289 9.76303 29.3761 9.9351 29.2704C10.1072 29.1618 10.2445 29.0199 10.3472 28.8448C10.4528 28.6667 10.5298 28.472 10.5781 28.2607V26.5852C10.5479 26.4403 10.5026 26.2939 10.4423 26.146C10.3849 25.995 10.3079 25.8562 10.2113 25.7294C10.1147 25.6026 9.99095 25.5015 9.84001 25.426C9.69209 25.3475 9.51247 25.3083 9.30115 25.3083C9.09587 25.3083 8.91776 25.346 8.76682 25.4215C8.61588 25.4939 8.49211 25.6056 8.39551 25.7565C8.2989 25.9075 8.22645 26.0977 8.17815 26.3271C8.13287 26.5535 8.11023 26.8252 8.11023 27.1422ZM13.929 29.9135C13.6573 29.9135 13.4067 29.8697 13.1773 29.7821C12.9509 29.6916 12.7547 29.5557 12.5886 29.3746C12.4256 29.1904 12.2988 28.9595 12.2083 28.6818C12.1177 28.401 12.0724 28.0705 12.0724 27.6901V27.1241C12.0724 26.7195 12.1207 26.3724 12.2173 26.0826C12.3139 25.7898 12.4437 25.5513 12.6067 25.3671C12.7728 25.18 12.9615 25.0441 13.1728 24.9596C13.3841 24.872 13.6075 24.8283 13.843 24.8283C14.1116 24.8283 14.3471 24.872 14.5494 24.9596C14.7546 25.0471 14.9267 25.18 15.0656 25.3581C15.2044 25.5362 15.3086 25.7611 15.378 26.0328C15.4474 26.3014 15.4822 26.6199 15.4822 26.9882V27.4093H12.3758V26.9384H14.9795V26.8116C14.9735 26.4916 14.9282 26.2199 14.8437 25.9965C14.7622 25.7701 14.6384 25.5981 14.4724 25.4803C14.3094 25.3596 14.1011 25.2992 13.8475 25.2992C13.6603 25.2992 13.4882 25.3339 13.3313 25.4033C13.1743 25.4698 13.0384 25.5754 12.9237 25.7203C12.812 25.8652 12.726 26.0539 12.6656 26.2864C12.6083 26.5188 12.5796 26.798 12.5796 27.1241V27.6901C12.5796 27.989 12.6113 28.2486 12.6747 28.469C12.7411 28.6863 12.8347 28.8674 12.9554 29.0123C13.0762 29.1542 13.2211 29.2614 13.3901 29.3338C13.5592 29.4033 13.7463 29.438 13.9516 29.438C14.2052 29.438 14.4271 29.3957 14.6173 29.3112C14.8075 29.2237 14.9765 29.0923 15.1244 28.9172L15.3916 29.2523C15.301 29.3701 15.1893 29.4803 15.0565 29.5829C14.9237 29.6825 14.7652 29.7625 14.5811 29.8229C14.3969 29.8833 14.1795 29.9135 13.929 29.9135ZM16.3697 27.6222V27.115C16.3697 26.7437 16.412 26.4162 16.4965 26.1324C16.584 25.8486 16.7063 25.6101 16.8633 25.4169C17.0233 25.2207 17.2135 25.0743 17.4338 24.9777C17.6542 24.8781 17.8957 24.8283 18.1583 24.8283C18.427 24.8283 18.67 24.8781 18.8874 24.9777C19.1078 25.0743 19.2964 25.2207 19.4534 25.4169C19.6134 25.6101 19.7372 25.8486 19.8247 26.1324C19.9123 26.4162 19.956 26.7437 19.956 27.115V27.6222C19.956 27.9935 19.9123 28.3225 19.8247 28.6093C19.7372 28.8931 19.6134 29.1316 19.4534 29.3248C19.2964 29.518 19.1078 29.6644 18.8874 29.764C18.67 29.8636 18.4285 29.9135 18.1629 29.9135C17.8972 29.9135 17.6542 29.8636 17.4338 29.764C17.2165 29.6644 17.0278 29.518 16.8678 29.3248C16.7078 29.1286 16.584 28.8886 16.4965 28.6048C16.412 28.321 16.3697 27.9935 16.3697 27.6222ZM16.8769 27.115V27.6222C16.8769 27.9029 16.904 28.155 16.9584 28.3784C17.0157 28.6018 17.1002 28.792 17.2119 28.9489C17.3236 29.1059 17.458 29.2267 17.615 29.3112C17.775 29.3957 17.9576 29.438 18.1629 29.438C18.3802 29.438 18.5689 29.3957 18.7289 29.3112C18.8919 29.2267 19.0262 29.1059 19.1319 28.9489C19.2406 28.792 19.3206 28.6018 19.3719 28.3784C19.4262 28.155 19.4534 27.9029 19.4534 27.6222V27.115C19.4534 26.8403 19.4247 26.5913 19.3674 26.3679C19.31 26.1445 19.224 25.9543 19.1093 25.7973C18.9976 25.6373 18.8617 25.515 18.7017 25.4305C18.5417 25.343 18.3606 25.2992 18.1583 25.2992C17.9591 25.2992 17.7795 25.343 17.6195 25.4305C17.4595 25.515 17.3236 25.6373 17.2119 25.7973C17.1033 25.9543 17.0202 26.1445 16.9629 26.3679C16.9055 26.5913 16.8769 26.8403 16.8769 27.115ZM24.7514 29.438C24.9386 29.438 25.1137 29.4033 25.2767 29.3338C25.4427 29.2644 25.5786 29.1467 25.6842 28.9806C25.7899 28.8146 25.8503 28.5867 25.8654 28.2969H26.3454C26.3333 28.6471 26.2533 28.9429 26.1054 29.1844C25.9574 29.4229 25.7657 29.604 25.5303 29.7278C25.2948 29.8516 25.0352 29.9135 24.7514 29.9135C24.4586 29.9135 24.202 29.8652 23.9816 29.7685C23.7613 29.6719 23.5771 29.5286 23.4292 29.3384C23.2813 29.1452 23.1696 28.9082 23.0941 28.6274C23.0186 28.3437 22.9809 28.0161 22.9809 27.6448V27.0878C22.9809 26.7195 23.0186 26.395 23.0941 26.1143C23.1696 25.8305 23.2813 25.5935 23.4292 25.4033C23.5771 25.2132 23.7613 25.0698 23.9816 24.9732C24.202 24.8766 24.4586 24.8283 24.7514 24.8283C25.0503 24.8283 25.3175 24.8917 25.5529 25.0184C25.7884 25.1422 25.9756 25.3324 26.1144 25.589C26.2563 25.8456 26.3333 26.1731 26.3454 26.5716H25.8654C25.8533 26.2667 25.7959 26.0222 25.6933 25.8381C25.5937 25.6509 25.4624 25.515 25.2993 25.4305C25.1363 25.343 24.9537 25.2992 24.7514 25.2992C24.519 25.2992 24.3212 25.34 24.1582 25.4215C23.9982 25.5 23.8684 25.6162 23.7688 25.7701C23.6692 25.9241 23.5967 26.1113 23.5514 26.3316C23.5062 26.552 23.4835 26.8041 23.4835 27.0878V27.6448C23.4835 27.9316 23.5062 28.1867 23.5514 28.4101C23.5967 28.6335 23.6692 28.8222 23.7688 28.9761C23.8714 29.1271 24.0028 29.2418 24.1628 29.3203C24.3258 29.3987 24.522 29.438 24.7514 29.438ZM27.9212 22.863V29.8184H27.4185V22.863H27.9212ZM27.808 27.0652L27.5861 26.9339C27.5982 26.6441 27.645 26.3724 27.7265 26.1188C27.811 25.8652 27.9257 25.6418 28.0706 25.4486C28.2155 25.2524 28.3861 25.1 28.5823 24.9913C28.7785 24.8826 28.9959 24.8283 29.2344 24.8283C29.4366 24.8283 29.6193 24.8615 29.7823 24.9279C29.9453 24.9943 30.0826 25.0984 30.1943 25.2403C30.3091 25.3822 30.3966 25.5679 30.457 25.7973C30.5174 26.0267 30.5475 26.303 30.5475 26.626V29.8184H30.0449V26.6214C30.0449 26.2864 30.0072 26.0237 29.9317 25.8335C29.8562 25.6433 29.7476 25.509 29.6057 25.4305C29.4668 25.349 29.2993 25.3083 29.103 25.3083C28.8947 25.3083 28.7106 25.3641 28.5506 25.4758C28.3936 25.5875 28.2593 25.7324 28.1476 25.9105C28.0389 26.0886 27.9559 26.2803 27.8985 26.4856C27.8412 26.6879 27.811 26.8811 27.808 27.0652ZM34.3739 28.9399V26.2728C34.3739 26.0433 34.3346 25.8577 34.2562 25.7158C34.1777 25.5709 34.0629 25.4652 33.912 25.3988C33.7611 25.3324 33.5754 25.2992 33.355 25.2992C33.1467 25.2992 32.9611 25.3415 32.7981 25.426C32.6381 25.5075 32.5128 25.6222 32.4222 25.7701C32.3347 25.915 32.2909 26.0826 32.2909 26.2728L31.7883 26.2682C31.7883 26.0811 31.826 25.9015 31.9015 25.7294C31.9769 25.5543 32.0841 25.4003 32.223 25.2675C32.3618 25.1317 32.5279 25.0245 32.7211 24.946C32.9173 24.8675 33.1347 24.8283 33.3731 24.8283C33.666 24.8283 33.9256 24.8751 34.152 24.9686C34.3784 25.0622 34.555 25.2162 34.6818 25.4305C34.8116 25.6449 34.8765 25.9286 34.8765 26.2818V28.7859C34.8765 28.958 34.8871 29.1346 34.9082 29.3157C34.9324 29.4969 34.9641 29.6448 35.0033 29.7595V29.8184H34.469C34.4358 29.7127 34.4116 29.5784 34.3965 29.4153C34.3814 29.2493 34.3739 29.0908 34.3739 28.9399ZM34.478 26.9565L34.4916 27.3867H33.6222C33.3867 27.3867 33.1799 27.4124 33.0018 27.4637C32.8237 27.515 32.6743 27.589 32.5535 27.6856C32.4358 27.7822 32.3468 27.8969 32.2864 28.0297C32.226 28.1625 32.1958 28.3135 32.1958 28.4825C32.1958 28.6999 32.2305 28.878 32.3 29.0169C32.3694 29.1527 32.4705 29.2538 32.6034 29.3203C32.7392 29.3837 32.9007 29.4153 33.0879 29.4153C33.3354 29.4153 33.5528 29.367 33.7399 29.2704C33.9301 29.1708 34.0856 29.0395 34.2063 28.8765C34.3271 28.7105 34.4056 28.5354 34.4418 28.3512L34.5777 28.6591C34.5475 28.798 34.4916 28.9399 34.4101 29.0848C34.3286 29.2297 34.2229 29.3655 34.0931 29.4923C33.9633 29.6161 33.8094 29.7172 33.6313 29.7957C33.4531 29.8742 33.2524 29.9135 33.029 29.9135C32.7603 29.9135 32.5249 29.8621 32.3226 29.7595C32.1234 29.6569 31.9679 29.5014 31.8562 29.2931C31.7475 29.0848 31.6932 28.8282 31.6932 28.5233C31.6932 28.2969 31.7309 28.0886 31.8064 27.8984C31.8849 27.7082 32.0011 27.5437 32.1551 27.4048C32.309 27.2629 32.5022 27.1527 32.7347 27.0743C32.9671 26.9958 33.2373 26.9565 33.5452 26.9565H34.478ZM37.847 24.9188V25.3717H35.755V24.9188H37.847ZM36.5067 23.6645H37.0138V28.6229C37.0138 28.8493 37.038 29.0199 37.0863 29.1346C37.1346 29.2493 37.198 29.3263 37.2765 29.3655C37.355 29.4018 37.4395 29.4199 37.5301 29.4199C37.5995 29.4199 37.6644 29.4153 37.7248 29.4063C37.7882 29.3972 37.844 29.3852 37.8923 29.3701L37.9104 29.8319C37.8531 29.8561 37.7791 29.8742 37.6885 29.8863C37.601 29.9014 37.5074 29.9089 37.4078 29.9089C37.2387 29.9089 37.0863 29.8697 36.9504 29.7912C36.8146 29.7097 36.7059 29.5753 36.6244 29.3882C36.5459 29.201 36.5067 28.9444 36.5067 28.6184V23.6645ZM41.9632 26.2592L42.8416 25.4667C43.0016 25.3249 43.133 25.1724 43.2356 25.0094C43.3382 24.8464 43.3896 24.6532 43.3896 24.4298C43.3896 24.2154 43.3247 24.0238 43.1949 23.8547C43.0681 23.6856 42.8869 23.6011 42.6515 23.6011C42.4794 23.6011 42.3345 23.6479 42.2168 23.7415C42.102 23.8351 42.0145 23.9588 41.9541 24.1128C41.8937 24.2668 41.8636 24.4358 41.8636 24.62C41.8636 24.7649 41.8877 24.9158 41.936 25.0728C41.9873 25.2267 42.0598 25.3883 42.1534 25.5573C42.25 25.7233 42.3632 25.8984 42.493 26.0826L45.1737 29.8184H44.5714L42.3028 26.6486C42.1156 26.389 41.9496 26.149 41.8047 25.9286C41.6628 25.7082 41.5526 25.4939 41.4741 25.2856C41.3956 25.0773 41.3564 24.8615 41.3564 24.6381C41.3564 24.3271 41.4092 24.06 41.5149 23.8366C41.6205 23.6102 41.7715 23.4366 41.9677 23.3158C42.1639 23.1921 42.3918 23.1302 42.6515 23.1302C42.905 23.1302 43.1224 23.1906 43.3035 23.3113C43.4847 23.429 43.6235 23.586 43.7201 23.7822C43.8167 23.9785 43.865 24.1958 43.865 24.4343C43.865 24.6305 43.8288 24.8132 43.7563 24.9822C43.6869 25.1483 43.5948 25.3007 43.4801 25.4396C43.3684 25.5784 43.2477 25.7037 43.1179 25.8154L42.09 26.7437C41.8786 26.952 41.7232 27.1422 41.6236 27.3143C41.5239 27.4863 41.4575 27.6418 41.4243 27.7807C41.3941 27.9165 41.379 28.0327 41.379 28.1293C41.379 28.3618 41.4228 28.5776 41.5104 28.7769C41.5979 28.9731 41.7322 29.1316 41.9134 29.2523C42.0975 29.3731 42.3285 29.4335 42.6062 29.4335C42.8386 29.4335 43.0635 29.3731 43.2809 29.2523C43.5013 29.1286 43.6975 28.9535 43.8696 28.7271C44.0416 28.4976 44.1775 28.2259 44.2771 27.912C44.3797 27.595 44.4311 27.2433 44.4311 26.8569H44.8929C44.8929 27.1437 44.8688 27.4139 44.8205 27.6675C44.7752 27.918 44.7058 28.1505 44.6122 28.3648C44.5186 28.5791 44.4039 28.7754 44.268 28.9535C44.2469 28.9806 44.2318 29.0033 44.2228 29.0214C44.2167 29.0395 44.2016 29.0621 44.1775 29.0893C43.9782 29.3429 43.7397 29.5436 43.462 29.6916C43.1873 29.8365 42.902 29.9089 42.6062 29.9089C42.2469 29.9089 41.9375 29.835 41.6779 29.687C41.4213 29.5391 41.2221 29.3323 41.0802 29.0667C40.9413 28.798 40.8719 28.4871 40.8719 28.1339C40.8719 27.8682 40.9187 27.6282 41.0123 27.4139C41.1089 27.1995 41.2387 26.9988 41.4017 26.8116C41.5677 26.6245 41.7549 26.4403 41.9632 26.2592ZM48.2302 23.2253H50.037C50.4264 23.2253 50.7615 23.3007 51.0422 23.4517C51.326 23.5996 51.5434 23.8185 51.6943 24.1083C51.8483 24.3951 51.9253 24.7483 51.9253 25.1679C51.9253 25.4788 51.8709 25.7611 51.7622 26.0147C51.6536 26.2682 51.5026 26.4796 51.3094 26.6486C51.1192 26.8177 50.8958 26.9339 50.6392 26.9973L50.4672 27.0743H48.5834L48.5744 26.5897H50.123C50.4098 26.5897 50.6483 26.5233 50.8385 26.3905C51.0287 26.2547 51.1705 26.0796 51.2641 25.8652C51.3607 25.6479 51.409 25.4154 51.409 25.1679C51.409 24.869 51.3562 24.6109 51.2505 24.3936C51.1479 24.1762 50.9939 24.0087 50.7887 23.8909C50.5864 23.7702 50.3358 23.7098 50.037 23.7098H48.751V29.8184H48.2302V23.2253ZM51.6128 29.8184L50.1955 26.866L50.7479 26.8614L52.1652 29.7595V29.8184H51.6128ZM54.846 29.9135C54.5743 29.9135 54.3237 29.8697 54.0943 29.7821C53.8679 29.6916 53.6716 29.5557 53.5056 29.3746C53.3426 29.1904 53.2158 28.9595 53.1252 28.6818C53.0347 28.401 52.9894 28.0705 52.9894 27.6901V27.1241C52.9894 26.7195 53.0377 26.3724 53.1343 26.0826C53.2309 25.7898 53.3607 25.5513 53.5237 25.3671C53.6897 25.18 53.8784 25.0441 54.0897 24.9596C54.3011 24.872 54.5245 24.8283 54.7599 24.8283C55.0286 24.8283 55.2641 24.872 55.4663 24.9596C55.6716 25.0471 55.8437 25.18 55.9825 25.3581C56.1214 25.5362 56.2256 25.7611 56.295 26.0328C56.3644 26.3014 56.3991 26.6199 56.3991 26.9882V27.4093H53.2928V26.9384H55.8965V26.8116C55.8905 26.4916 55.8452 26.2199 55.7607 25.9965C55.6791 25.7701 55.5554 25.5981 55.3893 25.4803C55.2263 25.3596 55.018 25.2992 54.7644 25.2992C54.5773 25.2992 54.4052 25.3339 54.2482 25.4033C54.0913 25.4698 53.9554 25.5754 53.8407 25.7203C53.729 25.8652 53.643 26.0539 53.5826 26.2864C53.5252 26.5188 53.4965 26.798 53.4965 27.1241V27.6901C53.4965 27.989 53.5282 28.2486 53.5916 28.469C53.6581 28.6863 53.7516 28.8674 53.8724 29.0123C53.9931 29.1542 54.138 29.2614 54.3071 29.3338C54.4761 29.4033 54.6633 29.438 54.8686 29.438C55.1222 29.438 55.3441 29.3957 55.5342 29.3112C55.7244 29.2237 55.8935 29.0923 56.0414 28.9172L56.3086 29.2523C56.218 29.3701 56.1063 29.4803 55.9735 29.5829C55.8407 29.6825 55.6822 29.7625 55.498 29.8229C55.3139 29.8833 55.0965 29.9135 54.846 29.9135ZM57.9614 25.9241V29.8184H57.4542V24.9188H57.9387L57.9614 25.9241ZM57.8663 27.0652L57.6263 26.9339C57.6384 26.6441 57.6821 26.3724 57.7576 26.1188C57.8361 25.8652 57.9433 25.6418 58.0791 25.4486C58.218 25.2524 58.387 25.1 58.5863 24.9913C58.7855 24.8826 59.0119 24.8283 59.2655 24.8283C59.4647 24.8283 59.6444 24.8615 59.8044 24.9279C59.9674 24.9913 60.1077 25.0924 60.2255 25.2313C60.3432 25.3671 60.4338 25.5452 60.4972 25.7656C60.5606 25.983 60.5923 26.2471 60.5923 26.558V29.8184H60.0896V26.5762C60.0896 26.2531 60.0474 25.9996 59.9628 25.8154C59.8813 25.6313 59.7666 25.5015 59.6187 25.426C59.4738 25.3475 59.3032 25.3083 59.107 25.3083C58.8806 25.3083 58.6889 25.3641 58.5319 25.4758C58.3749 25.5875 58.2482 25.7324 58.1516 25.9105C58.058 26.0886 57.9885 26.2803 57.9433 26.4856C57.898 26.6879 57.8723 26.8811 57.8663 27.0652ZM60.5877 26.6396L60.2481 26.6577C60.2602 26.4192 60.3055 26.1913 60.384 25.9739C60.4625 25.7535 60.5711 25.5588 60.71 25.3898C60.8489 25.2177 61.0149 25.0818 61.2081 24.9822C61.4043 24.8796 61.6262 24.8283 61.8737 24.8283C62.0881 24.8283 62.2798 24.863 62.4488 24.9324C62.6179 24.9988 62.7598 25.1045 62.8745 25.2494C62.9922 25.3943 63.0813 25.5799 63.1416 25.8064C63.202 26.0328 63.2322 26.3045 63.2322 26.6214V29.8184H62.7251V26.6169C62.7251 26.2758 62.6828 26.0101 62.5983 25.8199C62.5168 25.6298 62.402 25.4969 62.2541 25.4215C62.1092 25.343 61.9402 25.3052 61.747 25.3083C61.5568 25.3083 61.3892 25.3505 61.2443 25.435C61.1024 25.5196 60.9832 25.6282 60.8866 25.7611C60.793 25.8909 60.7206 26.0343 60.6692 26.1913C60.6209 26.3452 60.5938 26.4946 60.5877 26.6396ZM64.3597 27.6222V27.115C64.3597 26.7437 64.402 26.4162 64.4865 26.1324C64.5741 25.8486 64.6963 25.6101 64.8533 25.4169C65.0133 25.2207 65.2035 25.0743 65.4239 24.9777C65.6442 24.8781 65.8857 24.8283 66.1484 24.8283C66.4171 24.8283 66.6601 24.8781 66.8774 24.9777C67.0978 25.0743 67.2865 25.2207 67.4435 25.4169C67.6034 25.6101 67.7272 25.8486 67.8148 26.1324C67.9023 26.4162 67.9461 26.7437 67.9461 27.115V27.6222C67.9461 27.9935 67.9023 28.3225 67.8148 28.6093C67.7272 28.8931 67.6034 29.1316 67.4435 29.3248C67.2865 29.518 67.0978 29.6644 66.8774 29.764C66.6601 29.8636 66.4186 29.9135 66.1529 29.9135C65.8873 29.9135 65.6442 29.8636 65.4239 29.764C65.2065 29.6644 65.0178 29.518 64.8578 29.3248C64.6978 29.1286 64.5741 28.8886 64.4865 28.6048C64.402 28.321 64.3597 27.9935 64.3597 27.6222ZM64.8669 27.115V27.6222C64.8669 27.9029 64.8941 28.155 64.9484 28.3784C65.0058 28.6018 65.0903 28.792 65.202 28.9489C65.3137 29.1059 65.448 29.2267 65.605 29.3112C65.765 29.3957 65.9476 29.438 66.1529 29.438C66.3703 29.438 66.5589 29.3957 66.7189 29.3112C66.882 29.2267 67.0163 29.1059 67.1219 28.9489C67.2306 28.792 67.3106 28.6018 67.3619 28.3784C67.4163 28.155 67.4435 27.9029 67.4435 27.6222V27.115C67.4435 26.8403 67.4148 26.5913 67.3574 26.3679C67.3001 26.1445 67.214 25.9543 67.0993 25.7973C66.9876 25.6373 66.8518 25.515 66.6918 25.4305C66.5318 25.343 66.3506 25.2992 66.1484 25.2992C65.9491 25.2992 65.7695 25.343 65.6095 25.4305C65.4495 25.515 65.3137 25.6373 65.202 25.7973C65.0933 25.9543 65.0103 26.1445 64.9529 26.3679C64.8956 26.5913 64.8669 26.8403 64.8669 27.115ZM70.6947 24.9188V25.3717H68.6027V24.9188H70.6947ZM69.3544 23.6645H69.8615V28.6229C69.8615 28.8493 69.8857 29.0199 69.934 29.1346C69.9823 29.2493 70.0457 29.3263 70.1242 29.3655C70.2026 29.4018 70.2872 29.4199 70.3777 29.4199C70.4472 29.4199 70.5121 29.4153 70.5724 29.4063C70.6358 29.3972 70.6917 29.3852 70.74 29.3701L70.7581 29.8319C70.7007 29.8561 70.6268 29.8742 70.5362 29.8863C70.4487 29.9014 70.3551 29.9089 70.2555 29.9089C70.0864 29.9089 69.934 29.8697 69.7981 29.7912C69.6623 29.7097 69.5536 29.5753 69.4721 29.3882C69.3936 29.201 69.3544 28.9444 69.3544 28.6184V23.6645ZM73.4207 29.9135C73.149 29.9135 72.8984 29.8697 72.669 29.7821C72.4426 29.6916 72.2464 29.5557 72.0803 29.3746C71.9173 29.1904 71.7905 28.9595 71.7 28.6818C71.6094 28.401 71.5641 28.0705 71.5641 27.6901V27.1241C71.5641 26.7195 71.6124 26.3724 71.709 26.0826C71.8056 25.7898 71.9354 25.5513 72.0985 25.3671C72.2645 25.18 72.4532 25.0441 72.6645 24.9596C72.8758 24.872 73.0992 24.8283 73.3347 24.8283C73.6033 24.8283 73.8388 24.872 74.0411 24.9596C74.2463 25.0471 74.4184 25.18 74.5573 25.3581C74.6961 25.5362 74.8003 25.7611 74.8697 26.0328C74.9392 26.3014 74.9739 26.6199 74.9739 26.9882V27.4093H71.8675V26.9384H74.4712V26.8116C74.4652 26.4916 74.4199 26.2199 74.3354 25.9965C74.2539 25.7701 74.1301 25.5981 73.9641 25.4803C73.8011 25.3596 73.5928 25.2992 73.3392 25.2992C73.152 25.2992 72.9799 25.3339 72.823 25.4033C72.666 25.4698 72.5301 25.5754 72.4154 25.7203C72.3037 25.8652 72.2177 26.0539 72.1573 26.2864C72.1 26.5188 72.0713 26.798 72.0713 27.1241V27.6901C72.0713 27.989 72.103 28.2486 72.1664 28.469C72.2328 28.6863 72.3264 28.8674 72.4471 29.0123C72.5679 29.1542 72.7128 29.2614 72.8818 29.3338C73.0509 29.4033 73.2381 29.438 73.4433 29.438C73.6969 29.438 73.9188 29.3957 74.109 29.3112C74.2992 29.2237 74.4682 29.0923 74.6161 28.9172L74.8833 29.2523C74.7927 29.3701 74.681 29.4803 74.5482 29.5829C74.4154 29.6825 74.2569 29.7625 74.0728 29.8229C73.8886 29.8833 73.6713 29.9135 73.4207 29.9135ZM81.6802 27.758H82.2009C82.1707 28.2501 82.0726 28.6561 81.9066 28.9761C81.7405 29.2931 81.5096 29.5286 81.2138 29.6825C80.9209 29.8365 80.5662 29.9135 80.1496 29.9135C79.8327 29.9135 79.5474 29.8516 79.2938 29.7278C79.0402 29.604 78.8229 29.4244 78.6417 29.1889C78.4636 28.9535 78.3263 28.6697 78.2297 28.3376C78.1361 28.0025 78.0893 27.6252 78.0893 27.2056V25.7928C78.0893 25.3792 78.1361 25.0094 78.2297 24.6834C78.3263 24.3543 78.4651 24.0751 78.6463 23.8456C78.8304 23.6132 79.0508 23.4366 79.3074 23.3158C79.567 23.1951 79.8613 23.1347 80.1904 23.1347C80.5889 23.1347 80.9315 23.2102 81.2183 23.3611C81.5081 23.5121 81.736 23.746 81.902 24.063C82.0711 24.38 82.1707 24.789 82.2009 25.2901H81.6802C81.653 24.8856 81.5805 24.5611 81.4628 24.3166C81.3451 24.0721 81.1806 23.8955 80.9692 23.7868C80.7609 23.6751 80.5013 23.6192 80.1904 23.6192C79.9338 23.6192 79.7074 23.669 79.5112 23.7687C79.3179 23.8653 79.1534 24.0071 79.0176 24.1943C78.8847 24.3785 78.7836 24.6049 78.7142 24.8735C78.6448 25.1392 78.61 25.4426 78.61 25.7837V27.2056C78.61 27.5407 78.6432 27.8456 78.7097 28.1203C78.7761 28.392 78.8727 28.6259 78.9995 28.8222C79.1293 29.0184 79.2893 29.1693 79.4795 29.275C79.6727 29.3776 79.896 29.4289 80.1496 29.4289C80.4757 29.4289 80.7458 29.3776 80.9602 29.275C81.1745 29.1723 81.3406 29.0003 81.4583 28.7588C81.576 28.5142 81.65 28.1807 81.6802 27.758ZM83.1971 27.6222V27.115C83.1971 26.7437 83.2394 26.4162 83.3239 26.1324C83.4114 25.8486 83.5337 25.6101 83.6907 25.4169C83.8507 25.2207 84.0409 25.0743 84.2612 24.9777C84.4816 24.8781 84.7231 24.8283 84.9858 24.8283C85.2544 24.8283 85.4974 24.8781 85.7148 24.9777C85.9352 25.0743 86.1238 25.2207 86.2808 25.4169C86.4408 25.6101 86.5646 25.8486 86.6521 26.1324C86.7397 26.4162 86.7835 26.7437 86.7835 27.115V27.6222C86.7835 27.9935 86.7397 28.3225 86.6521 28.6093C86.5646 28.8931 86.4408 29.1316 86.2808 29.3248C86.1238 29.518 85.9352 29.6644 85.7148 29.764C85.4974 29.8636 85.2559 29.9135 84.9903 29.9135C84.7246 29.9135 84.4816 29.8636 84.2612 29.764C84.0439 29.6644 83.8552 29.518 83.6952 29.3248C83.5352 29.1286 83.4114 28.8886 83.3239 28.6048C83.2394 28.321 83.1971 27.9935 83.1971 27.6222ZM83.7043 27.115V27.6222C83.7043 27.9029 83.7314 28.155 83.7858 28.3784C83.8431 28.6018 83.9277 28.792 84.0394 28.9489C84.1511 29.1059 84.2854 29.2267 84.4424 29.3112C84.6024 29.3957 84.785 29.438 84.9903 29.438C85.2076 29.438 85.3963 29.3957 85.5563 29.3112C85.7193 29.2267 85.8537 29.1059 85.9593 28.9489C86.068 28.792 86.148 28.6018 86.1993 28.3784C86.2537 28.155 86.2808 27.9029 86.2808 27.6222V27.115C86.2808 26.8403 86.2521 26.5913 86.1948 26.3679C86.1374 26.1445 86.0514 25.9543 85.9367 25.7973C85.825 25.6373 85.6891 25.515 85.5291 25.4305C85.3691 25.343 85.188 25.2992 84.9858 25.2992C84.7865 25.2992 84.6069 25.343 84.4469 25.4305C84.2869 25.515 84.1511 25.6373 84.0394 25.7973C83.9307 25.9543 83.8477 26.1445 83.7903 26.3679C83.733 26.5913 83.7043 26.8403 83.7043 27.115ZM90.6053 28.8674V22.863H91.1079V29.8184H90.637L90.6053 28.8674ZM87.7616 27.5995V27.1422C87.7616 26.7316 87.7978 26.3799 87.8702 26.0871C87.9457 25.7913 88.0529 25.5513 88.1917 25.3671C88.3306 25.183 88.4981 25.0471 88.6944 24.9596C88.8936 24.872 89.1155 24.8283 89.36 24.8283C89.5985 24.8283 89.8068 24.8735 89.9849 24.9641C90.166 25.0517 90.32 25.1769 90.4468 25.34C90.5736 25.503 90.6762 25.6977 90.7547 25.9241C90.8332 26.1475 90.8906 26.398 90.9268 26.6758V28.1384C90.8966 28.398 90.8423 28.6365 90.7638 28.8538C90.6883 29.0712 90.5857 29.2584 90.4558 29.4153C90.3291 29.5723 90.1736 29.6946 89.9894 29.7821C89.8053 29.8697 89.591 29.9135 89.3464 29.9135C89.1049 29.9135 88.8861 29.8667 88.6898 29.7731C88.4966 29.6795 88.3306 29.5376 88.1917 29.3474C88.0529 29.1572 87.9457 28.9172 87.8702 28.6274C87.7978 28.3376 87.7616 27.995 87.7616 27.5995ZM88.2687 27.1422V27.5995C88.2687 27.9135 88.2914 28.1852 88.3366 28.4146C88.3849 28.644 88.4574 28.8342 88.554 28.9852C88.6536 29.1331 88.7774 29.2448 88.9253 29.3203C89.0732 29.3927 89.2483 29.4289 89.4506 29.4289C89.7072 29.4289 89.9215 29.3761 90.0936 29.2704C90.2657 29.1618 90.403 29.0199 90.5057 28.8448C90.6113 28.6667 90.6883 28.472 90.7366 28.2607V26.5852C90.7064 26.4403 90.6611 26.2939 90.6007 26.146C90.5434 25.995 90.4664 25.8562 90.3698 25.7294C90.2732 25.6026 90.1494 25.5015 89.9985 25.426C89.8506 25.3475 89.671 25.3083 89.4596 25.3083C89.2544 25.3083 89.0763 25.346 88.9253 25.4215C88.7744 25.4939 88.6506 25.6056 88.554 25.7565C88.4574 25.9075 88.3849 26.0977 88.3366 26.3271C88.2914 26.5535 88.2687 26.8252 88.2687 27.1422ZM94.0875 29.9135C93.8158 29.9135 93.5652 29.8697 93.3358 29.7821C93.1094 29.6916 92.9132 29.5557 92.7471 29.3746C92.5841 29.1904 92.4573 28.9595 92.3668 28.6818C92.2762 28.401 92.2309 28.0705 92.2309 27.6901V27.1241C92.2309 26.7195 92.2792 26.3724 92.3758 26.0826C92.4724 25.7898 92.6022 25.5513 92.7652 25.3671C92.9313 25.18 93.1199 25.0441 93.3313 24.9596C93.5426 24.872 93.766 24.8283 94.0014 24.8283C94.2701 24.8283 94.5056 24.872 94.7078 24.9596C94.9131 25.0471 95.0852 25.18 95.2241 25.3581C95.3629 25.5362 95.4671 25.7611 95.5365 26.0328C95.6059 26.3014 95.6407 26.6199 95.6407 26.9882V27.4093H92.5343V26.9384H95.138V26.8116C95.132 26.4916 95.0867 26.2199 95.0022 25.9965C94.9207 25.7701 94.7969 25.5981 94.6309 25.4803C94.4678 25.3596 94.2595 25.2992 94.006 25.2992C93.8188 25.2992 93.6467 25.3339 93.4897 25.4033C93.3328 25.4698 93.1969 25.5754 93.0822 25.7203C92.9705 25.8652 92.8845 26.0539 92.8241 26.2864C92.7667 26.5188 92.7381 26.798 92.7381 27.1241V27.6901C92.7381 27.989 92.7698 28.2486 92.8332 28.469C92.8996 28.6863 92.9932 28.8674 93.1139 29.0123C93.2347 29.1542 93.3796 29.2614 93.5486 29.3338C93.7177 29.4033 93.9048 29.438 94.1101 29.438C94.3637 29.438 94.5856 29.3957 94.7758 29.3112C94.9659 29.2237 95.135 29.0923 95.2829 28.9172L95.5501 29.2523C95.4595 29.3701 95.3478 29.4803 95.215 29.5829C95.0822 29.6825 94.9237 29.7625 94.7395 29.8229C94.5554 29.8833 94.338 29.9135 94.0875 29.9135ZM97.221 25.7249V29.8184H96.7184V24.9188H97.2074L97.221 25.7249ZM98.6474 24.8871L98.6338 25.3898C98.5795 25.3777 98.5281 25.3701 98.4798 25.3671C98.4315 25.3611 98.3787 25.3581 98.3214 25.3581C98.1312 25.3581 97.9651 25.4003 97.8233 25.4849C97.6814 25.5694 97.5606 25.6886 97.461 25.8426C97.3644 25.9935 97.2889 26.1701 97.2346 26.3724C97.1833 26.5716 97.1531 26.7875 97.144 27.0199L96.9674 27.0969C96.9674 26.7799 96.9946 26.4841 97.0489 26.2094C97.1033 25.9347 97.1863 25.6932 97.298 25.4849C97.4127 25.2766 97.5561 25.1151 97.7282 25.0003C97.9033 24.8856 98.1085 24.8283 98.344 24.8283C98.3983 24.8283 98.4542 24.8343 98.5115 24.8464C98.5719 24.8554 98.6172 24.869 98.6474 24.8871ZM105.811 25.8109V27.2373C105.811 27.669 105.761 28.0524 105.662 28.3874C105.565 28.7195 105.423 28.9988 105.236 29.2252C105.052 29.4516 104.828 29.6236 104.566 29.7414C104.306 29.8561 104.012 29.9135 103.683 29.9135C103.36 29.9135 103.067 29.8561 102.804 29.7414C102.542 29.6236 102.317 29.4516 102.13 29.2252C101.942 28.9988 101.798 28.7195 101.695 28.3874C101.595 28.0524 101.545 27.669 101.545 27.2373V25.8109C101.545 25.3762 101.595 24.9913 101.695 24.6562C101.795 24.3211 101.936 24.0419 102.121 23.8185C102.308 23.5951 102.533 23.426 102.795 23.3113C103.058 23.1936 103.351 23.1347 103.674 23.1347C104.006 23.1347 104.303 23.1936 104.566 23.3113C104.828 23.426 105.052 23.5951 105.236 23.8185C105.423 24.0419 105.565 24.3211 105.662 24.6562C105.761 24.9913 105.811 25.3762 105.811 25.8109ZM105.295 27.2373V25.8018C105.295 25.4426 105.259 25.1271 105.186 24.8554C105.117 24.5837 105.014 24.3573 104.878 24.1762C104.742 23.9951 104.573 23.8592 104.371 23.7687C104.169 23.6781 103.936 23.6328 103.674 23.6328C103.42 23.6328 103.192 23.6781 102.99 23.7687C102.791 23.8592 102.622 23.9966 102.483 24.1807C102.347 24.3619 102.243 24.5883 102.17 24.86C102.098 25.1286 102.062 25.4426 102.062 25.8018V27.2373C102.062 27.5995 102.098 27.9165 102.17 28.1882C102.246 28.4569 102.353 28.6833 102.492 28.8674C102.631 29.0486 102.8 29.1844 102.999 29.275C103.201 29.3655 103.429 29.4108 103.683 29.4108C103.945 29.4108 104.176 29.3655 104.376 29.275C104.578 29.1844 104.747 29.0486 104.883 28.8674C105.019 28.6833 105.121 28.4569 105.191 28.1882C105.26 27.9165 105.295 27.5995 105.295 27.2373ZM107.591 25.9648V29.8184H107.088V24.9188H107.568L107.591 25.9648ZM107.477 27.0652L107.256 26.9339C107.268 26.6441 107.314 26.3724 107.396 26.1188C107.48 25.8652 107.595 25.6418 107.74 25.4486C107.885 25.2524 108.056 25.1 108.252 24.9913C108.448 24.8826 108.665 24.8283 108.904 24.8283C109.106 24.8283 109.289 24.8615 109.452 24.9279C109.615 24.9943 109.752 25.0984 109.864 25.2403C109.979 25.3822 110.066 25.5679 110.126 25.7973C110.187 26.0267 110.217 26.303 110.217 26.626V29.8184H109.714V26.6214C109.714 26.2864 109.677 26.0237 109.601 25.8335C109.526 25.6433 109.417 25.509 109.275 25.4305C109.136 25.349 108.969 25.3083 108.772 25.3083C108.564 25.3083 108.38 25.3641 108.22 25.4758C108.063 25.5875 107.929 25.7324 107.817 25.9105C107.708 26.0886 107.625 26.2803 107.568 26.4856C107.511 26.6879 107.48 26.8811 107.477 27.0652ZM113.183 29.8184H111.947L111.951 29.3338H113.183C113.578 29.3338 113.915 29.2508 114.193 29.0848C114.47 28.9188 114.682 28.6757 114.827 28.3557C114.975 28.0358 115.049 27.6448 115.049 27.1829V25.8471C115.049 25.4969 115.006 25.189 114.922 24.9234C114.84 24.6547 114.72 24.4313 114.56 24.2532C114.403 24.0721 114.211 23.9362 113.984 23.8456C113.758 23.7551 113.503 23.7098 113.219 23.7098H111.92V23.2253H113.219C113.569 23.2253 113.886 23.2826 114.17 23.3973C114.457 23.5121 114.704 23.6811 114.913 23.9045C115.121 24.1279 115.281 24.4041 115.393 24.7332C115.504 25.0592 115.56 25.4335 115.56 25.8562V27.1829C115.56 27.6086 115.504 27.9859 115.393 28.315C115.281 28.641 115.121 28.9157 114.913 29.1391C114.704 29.3625 114.454 29.5316 114.161 29.6463C113.871 29.761 113.545 29.8184 113.183 29.8184ZM112.191 23.2253V29.8184H111.671V23.2253H112.191ZM118.467 29.9135C118.196 29.9135 117.945 29.8697 117.716 29.7821C117.489 29.6916 117.293 29.5557 117.127 29.3746C116.964 29.1904 116.837 28.9595 116.747 28.6818C116.656 28.401 116.611 28.0705 116.611 27.6901V27.1241C116.611 26.7195 116.659 26.3724 116.756 26.0826C116.852 25.7898 116.982 25.5513 117.145 25.3671C117.311 25.18 117.5 25.0441 117.711 24.9596C117.922 24.872 118.146 24.8283 118.381 24.8283C118.65 24.8283 118.885 24.872 119.088 24.9596C119.293 25.0471 119.465 25.18 119.604 25.3581C119.743 25.5362 119.847 25.7611 119.916 26.0328C119.986 26.3014 120.021 26.6199 120.021 26.9882V27.4093H116.914V26.9384H119.518V26.8116C119.512 26.4916 119.467 26.2199 119.382 25.9965C119.301 25.7701 119.177 25.5981 119.011 25.4803C118.848 25.3596 118.639 25.2992 118.386 25.2992C118.199 25.2992 118.027 25.3339 117.87 25.4033C117.713 25.4698 117.577 25.5754 117.462 25.7203C117.35 25.8652 117.264 26.0539 117.204 26.2864C117.147 26.5188 117.118 26.798 117.118 27.1241V27.6901C117.118 27.989 117.15 28.2486 117.213 28.469C117.279 28.6863 117.373 28.8674 117.494 29.0123C117.615 29.1542 117.759 29.2614 117.929 29.3338C118.098 29.4033 118.285 29.438 118.49 29.438C118.744 29.438 118.965 29.3957 119.156 29.3112C119.346 29.2237 119.515 29.0923 119.663 28.9172L119.93 29.2523C119.839 29.3701 119.728 29.4803 119.595 29.5829C119.462 29.6825 119.304 29.7625 119.119 29.8229C118.935 29.8833 118.718 29.9135 118.467 29.9135ZM121.583 25.9241V29.8184H121.076V24.9188H121.56L121.583 25.9241ZM121.488 27.0652L121.248 26.9339C121.26 26.6441 121.304 26.3724 121.379 26.1188C121.458 25.8652 121.565 25.6418 121.701 25.4486C121.839 25.2524 122.008 25.1 122.208 24.9913C122.407 24.8826 122.633 24.8283 122.887 24.8283C123.086 24.8283 123.266 24.8615 123.426 24.9279C123.589 24.9913 123.729 25.0924 123.847 25.2313C123.965 25.3671 124.055 25.5452 124.119 25.7656C124.182 25.983 124.214 26.2471 124.214 26.558V29.8184H123.711V26.5762C123.711 26.2531 123.669 25.9996 123.584 25.8154C123.503 25.6313 123.388 25.5015 123.24 25.426C123.095 25.3475 122.925 25.3083 122.728 25.3083C122.502 25.3083 122.31 25.3641 122.153 25.4758C121.996 25.5875 121.87 25.7324 121.773 25.9105C121.679 26.0886 121.61 26.2803 121.565 26.4856C121.519 26.6879 121.494 26.8811 121.488 27.0652ZM124.209 26.6396L123.87 26.6577C123.882 26.4192 123.927 26.1913 124.005 25.9739C124.084 25.7535 124.193 25.5588 124.331 25.3898C124.47 25.2177 124.636 25.0818 124.83 24.9822C125.026 24.8796 125.248 24.8283 125.495 24.8283C125.71 24.8283 125.901 24.863 126.07 24.9324C126.239 24.9988 126.381 25.1045 126.496 25.2494C126.614 25.3943 126.703 25.5799 126.763 25.8064C126.823 26.0328 126.854 26.3045 126.854 26.6214V29.8184H126.346V26.6169C126.346 26.2758 126.304 26.0101 126.22 25.8199C126.138 25.6298 126.023 25.4969 125.876 25.4215C125.731 25.343 125.562 25.3052 125.368 25.3083C125.178 25.3083 125.011 25.3505 124.866 25.435C124.724 25.5196 124.605 25.6282 124.508 25.7611C124.414 25.8909 124.342 26.0343 124.291 26.1913C124.242 26.3452 124.215 26.4946 124.209 26.6396ZM130.662 28.9399V26.2728C130.662 26.0433 130.623 25.8577 130.544 25.7158C130.466 25.5709 130.351 25.4652 130.2 25.3988C130.049 25.3324 129.863 25.2992 129.643 25.2992C129.435 25.2992 129.249 25.3415 129.086 25.426C128.926 25.5075 128.801 25.6222 128.71 25.7701C128.623 25.915 128.579 26.0826 128.579 26.2728L128.076 26.2682C128.076 26.0811 128.114 25.9015 128.189 25.7294C128.265 25.5543 128.372 25.4003 128.511 25.2675C128.65 25.1317 128.816 25.0245 129.009 24.946C129.205 24.8675 129.423 24.8283 129.661 24.8283C129.954 24.8283 130.214 24.8751 130.44 24.9686C130.666 25.0622 130.843 25.2162 130.97 25.4305C131.1 25.6449 131.165 25.9286 131.165 26.2818V28.7859C131.165 28.958 131.175 29.1346 131.196 29.3157C131.22 29.4969 131.252 29.6448 131.291 29.7595V29.8184H130.757C130.724 29.7127 130.7 29.5784 130.685 29.4153C130.669 29.2493 130.662 29.0908 130.662 28.9399ZM130.766 26.9565L130.78 27.3867H129.91C129.675 27.3867 129.468 27.4124 129.29 27.4637C129.112 27.515 128.962 27.589 128.842 27.6856C128.724 27.7822 128.635 27.8969 128.574 28.0297C128.514 28.1625 128.484 28.3135 128.484 28.4825C128.484 28.6999 128.519 28.878 128.588 29.0169C128.657 29.1527 128.759 29.2538 128.891 29.3203C129.027 29.3837 129.189 29.4153 129.376 29.4153C129.623 29.4153 129.841 29.367 130.028 29.2704C130.218 29.1708 130.374 29.0395 130.494 28.8765C130.615 28.7105 130.694 28.5354 130.73 28.3512L130.866 28.6591C130.835 28.798 130.78 28.9399 130.698 29.0848C130.617 29.2297 130.511 29.3655 130.381 29.4923C130.251 29.6161 130.097 29.7172 129.919 29.7957C129.741 29.8742 129.54 29.9135 129.317 29.9135C129.048 29.9135 128.813 29.8621 128.611 29.7595C128.411 29.6569 128.256 29.5014 128.144 29.2931C128.036 29.0848 127.981 28.8282 127.981 28.5233C127.981 28.2969 128.019 28.0886 128.094 27.8984C128.173 27.7082 128.289 27.5437 128.443 27.4048C128.597 27.2629 128.79 27.1527 129.023 27.0743C129.255 26.9958 129.525 26.9565 129.833 26.9565H130.766ZM133.048 25.9648V29.8184H132.546V24.9188H133.026L133.048 25.9648ZM132.935 27.0652L132.713 26.9339C132.725 26.6441 132.772 26.3724 132.854 26.1188C132.938 25.8652 133.053 25.6418 133.198 25.4486C133.343 25.2524 133.513 25.1 133.709 24.9913C133.906 24.8826 134.123 24.8283 134.361 24.8283C134.564 24.8283 134.746 24.8615 134.909 24.9279C135.072 24.9943 135.21 25.0984 135.321 25.2403C135.436 25.3822 135.524 25.5679 135.584 25.7973C135.644 26.0267 135.675 26.303 135.675 26.626V29.8184H135.172V26.6214C135.172 26.2864 135.134 26.0237 135.059 25.8335C134.983 25.6433 134.875 25.509 134.733 25.4305C134.594 25.349 134.426 25.3083 134.23 25.3083C134.022 25.3083 133.838 25.3641 133.678 25.4758C133.521 25.5875 133.386 25.7324 133.275 25.9105C133.166 26.0886 133.083 26.2803 133.026 26.4856C132.968 26.6879 132.938 26.8811 132.935 27.0652ZM139.682 28.8674V22.863H140.185V29.8184H139.714L139.682 28.8674ZM136.838 27.5995V27.1422C136.838 26.7316 136.875 26.3799 136.947 26.0871C137.023 25.7913 137.13 25.5513 137.269 25.3671C137.407 25.183 137.575 25.0471 137.771 24.9596C137.97 24.872 138.192 24.8283 138.437 24.8283C138.675 24.8283 138.884 24.8735 139.062 24.9641C139.243 25.0517 139.397 25.1769 139.524 25.34C139.65 25.503 139.753 25.6977 139.832 25.9241C139.91 26.1475 139.967 26.398 140.004 26.6758V28.1384C139.973 28.398 139.919 28.6365 139.841 28.8538C139.765 29.0712 139.662 29.2584 139.533 29.4153C139.406 29.5723 139.25 29.6946 139.066 29.7821C138.882 29.8697 138.668 29.9135 138.423 29.9135C138.182 29.9135 137.963 29.8667 137.767 29.7731C137.573 29.6795 137.407 29.5376 137.269 29.3474C137.13 29.1572 137.023 28.9172 136.947 28.6274C136.875 28.3376 136.838 27.995 136.838 27.5995ZM137.346 27.1422V27.5995C137.346 27.9135 137.368 28.1852 137.413 28.4146C137.462 28.644 137.534 28.8342 137.631 28.9852C137.73 29.1331 137.854 29.2448 138.002 29.3203C138.15 29.3927 138.325 29.4289 138.527 29.4289C138.784 29.4289 138.998 29.3761 139.17 29.2704C139.342 29.1618 139.48 29.0199 139.582 28.8448C139.688 28.6667 139.765 28.472 139.813 28.2607V26.5852C139.783 26.4403 139.738 26.2939 139.678 26.146C139.62 25.995 139.543 25.8562 139.447 25.7294C139.35 25.6026 139.226 25.5015 139.075 25.426C138.927 25.3475 138.748 25.3083 138.536 25.3083C138.331 25.3083 138.153 25.346 138.002 25.4215C137.851 25.4939 137.727 25.6056 137.631 25.7565C137.534 25.9075 137.462 26.0977 137.413 26.3271C137.368 26.5535 137.346 26.8252 137.346 27.1422Z" fill="black"/>
</svg>
