<svg width="141" height="8" viewBox="0 0 141 8" fill="none" xmlns="http://www.w3.org/2000/svg">
<path d="M2.65373 6.99422L4.37445 1.22528H4.94048L2.88014 7.81836H2.46354L2.65373 6.99422ZM0.905837 1.22528L2.6175 6.99422L2.80769 7.81836H2.39562L0.33981 1.22528H0.905837ZM6.37592 2.91883V7.81836H5.87329V2.91883H6.37592ZM5.79631 1.51055C5.79631 1.40188 5.82499 1.31282 5.88235 1.24339C5.94272 1.17094 6.02574 1.13471 6.1314 1.13471C6.23404 1.13471 6.31404 1.17094 6.37139 1.24339C6.43177 1.31282 6.46196 1.40188 6.46196 1.51055C6.46196 1.61017 6.43177 1.6947 6.37139 1.76413C6.31404 1.83357 6.23404 1.86828 6.1314 1.86828C6.02574 1.86828 5.94272 1.83357 5.88235 1.76413C5.82499 1.6947 5.79631 1.61017 5.79631 1.51055ZM10.4468 6.86743V0.863019H10.9494V7.81836H10.4785L10.4468 6.86743ZM7.60307 5.59953V5.14218C7.60307 4.73163 7.63929 4.37993 7.71175 4.08711C7.78722 3.79127 7.89438 3.55127 8.03325 3.36712C8.17211 3.18298 8.33966 3.04713 8.53588 2.95958C8.73512 2.87204 8.95701 2.82826 9.20153 2.82826C9.44002 2.82826 9.64831 2.87355 9.82642 2.96411C10.0076 3.05166 10.1615 3.17694 10.2883 3.33995C10.4151 3.50297 10.5177 3.69768 10.5962 3.92409C10.6747 4.14749 10.7321 4.39805 10.7683 4.67578V6.13839C10.7381 6.39801 10.6838 6.63649 10.6053 6.85385C10.5298 7.0712 10.4272 7.25837 10.2974 7.41535C10.1706 7.57233 10.0151 7.69459 9.83095 7.78213C9.6468 7.86968 9.43247 7.91345 9.18794 7.91345C8.94644 7.91345 8.72758 7.86666 8.53135 7.77308C8.33815 7.67949 8.17211 7.53761 8.03325 7.34742C7.89438 7.15724 7.78722 6.91724 7.71175 6.62744C7.63929 6.33763 7.60307 5.995 7.60307 5.59953ZM8.11023 5.14218V5.59953C8.11023 5.91349 8.13287 6.18518 8.17815 6.41461C8.22645 6.64404 8.2989 6.83423 8.39551 6.98517C8.49513 7.13309 8.6189 7.24479 8.76682 7.32026C8.91474 7.39271 9.08983 7.42893 9.29209 7.42893C9.54869 7.42893 9.76303 7.3761 9.9351 7.27045C10.1072 7.16177 10.2445 7.01988 10.3472 6.84479C10.4528 6.66668 10.5298 6.47197 10.5781 6.26065V4.58521C10.5479 4.44031 10.5026 4.2939 10.4423 4.14598C10.3849 3.99504 10.3079 3.85617 10.2113 3.72938C10.1147 3.60259 9.99095 3.50146 9.84001 3.42599C9.69209 3.3475 9.51247 3.30826 9.30115 3.30826C9.09587 3.30826 8.91776 3.34599 8.76682 3.42146C8.61588 3.49391 8.49211 3.60561 8.39551 3.75655C8.2989 3.90749 8.22645 4.09767 8.17815 4.3271C8.13287 4.55352 8.11023 4.82521 8.11023 5.14218ZM13.929 7.91345C13.6573 7.91345 13.4067 7.86968 13.1773 7.78213C12.9509 7.69157 12.7547 7.55572 12.5886 7.37459C12.4256 7.19045 12.2988 6.95951 12.2083 6.68178C12.1177 6.40103 12.0724 6.07047 12.0724 5.6901V5.12407C12.0724 4.71955 12.1207 4.37239 12.2173 4.08258C12.3139 3.78976 12.4437 3.55127 12.6067 3.36712C12.7728 3.17996 12.9615 3.04411 13.1728 2.95958C13.3841 2.87204 13.6075 2.82826 13.843 2.82826C14.1116 2.82826 14.3471 2.87204 14.5494 2.95958C14.7546 3.04713 14.9267 3.17996 15.0656 3.35807C15.2044 3.53618 15.3086 3.76108 15.378 4.03277C15.4474 4.30144 15.4822 4.61993 15.4822 4.98822V5.40935H12.3758V4.93841H14.9795V4.81162C14.9735 4.49163 14.9282 4.21994 14.8437 3.99654C14.7622 3.77013 14.6384 3.59806 14.4724 3.48033C14.3094 3.35958 14.1011 3.2992 13.8475 3.2992C13.6603 3.2992 13.4882 3.33392 13.3313 3.40335C13.1743 3.46976 13.0384 3.57542 12.9237 3.72032C12.812 3.86523 12.726 4.0539 12.6656 4.28635C12.6083 4.5188 12.5796 4.79804 12.5796 5.12407V5.6901C12.5796 5.98896 12.6113 6.24858 12.6747 6.46895C12.7411 6.68631 12.8347 6.86743 12.9554 7.01234C13.0762 7.15422 13.2211 7.26139 13.3901 7.33384C13.5592 7.40327 13.7463 7.43799 13.9516 7.43799C14.2052 7.43799 14.4271 7.39573 14.6173 7.3112C14.8075 7.22365 14.9765 7.09234 15.1244 6.91724L15.3916 7.25233C15.301 7.37007 15.1893 7.48025 15.0565 7.58289C14.9237 7.68251 14.7652 7.76251 14.5811 7.82289C14.3969 7.88326 14.1795 7.91345 13.929 7.91345ZM16.3697 5.62217V5.11501C16.3697 4.7437 16.412 4.41616 16.4965 4.13239C16.584 3.84862 16.7063 3.61014 16.8633 3.41693C17.0233 3.22071 17.2135 3.0743 17.4338 2.9777C17.6542 2.87808 17.8957 2.82826 18.1583 2.82826C18.427 2.82826 18.67 2.87808 18.8874 2.9777C19.1078 3.0743 19.2964 3.22071 19.4534 3.41693C19.6134 3.61014 19.7372 3.84862 19.8247 4.13239C19.9123 4.41616 19.956 4.7437 19.956 5.11501V5.62217C19.956 5.99349 19.9123 6.32254 19.8247 6.60933C19.7372 6.89309 19.6134 7.13158 19.4534 7.32478C19.2964 7.51799 19.1078 7.6644 18.8874 7.76402C18.67 7.86364 18.4285 7.91345 18.1629 7.91345C17.8972 7.91345 17.6542 7.86364 17.4338 7.76402C17.2165 7.6644 17.0278 7.51799 16.8678 7.32478C16.7078 7.12856 16.584 6.88857 16.4965 6.6048C16.412 6.32103 16.3697 5.99349 16.3697 5.62217ZM16.8769 5.11501V5.62217C16.8769 5.90292 16.904 6.15499 16.9584 6.37839C17.0157 6.60178 17.1002 6.79196 17.2119 6.94894C17.3236 7.10592 17.458 7.22667 17.615 7.3112C17.775 7.39573 17.9576 7.43799 18.1629 7.43799C18.3802 7.43799 18.5689 7.39573 18.7289 7.3112C18.8919 7.22667 19.0262 7.10592 19.1319 6.94894C19.2406 6.79196 19.3206 6.60178 19.3719 6.37839C19.4262 6.15499 19.4534 5.90292 19.4534 5.62217V5.11501C19.4534 4.8403 19.4247 4.59125 19.3674 4.36786C19.31 4.14447 19.224 3.95428 19.1093 3.7973C18.9976 3.63731 18.8617 3.51504 18.7017 3.43052C18.5417 3.34297 18.3606 3.2992 18.1583 3.2992C17.9591 3.2992 17.7795 3.34297 17.6195 3.43052C17.4595 3.51504 17.3236 3.63731 17.2119 3.7973C17.1033 3.95428 17.0202 4.14447 16.9629 4.36786C16.9055 4.59125 16.8769 4.8403 16.8769 5.11501ZM24.7514 7.43799C24.9386 7.43799 25.1137 7.40327 25.2767 7.33384C25.4427 7.26441 25.5786 7.14667 25.6842 6.98064C25.7899 6.8146 25.8503 6.58668 25.8654 6.29688H26.3454C26.3333 6.64706 26.2533 6.9429 26.1054 7.18441C25.9574 7.4229 25.7657 7.60402 25.5303 7.7278C25.2948 7.85157 25.0352 7.91345 24.7514 7.91345C24.4586 7.91345 24.202 7.86515 23.9816 7.76855C23.7613 7.67195 23.5771 7.52855 23.4292 7.33837C23.2813 7.14516 23.1696 6.90819 23.0941 6.62744C23.0186 6.34367 22.9809 6.01613 22.9809 5.64482V5.08784C22.9809 4.71955 23.0186 4.39503 23.0941 4.11428C23.1696 3.83051 23.2813 3.59353 23.4292 3.40335C23.5771 3.21316 23.7613 3.06977 23.9816 2.97317C24.202 2.87657 24.4586 2.82826 24.7514 2.82826C25.0503 2.82826 25.3175 2.89166 25.5529 3.01845C25.7884 3.14222 25.9756 3.33241 26.1144 3.58901C26.2563 3.8456 26.3333 4.17315 26.3454 4.57163H25.8654C25.8533 4.26673 25.7959 4.0222 25.6933 3.83806C25.5937 3.65089 25.4624 3.51504 25.2993 3.43052C25.1363 3.34297 24.9537 3.2992 24.7514 3.2992C24.519 3.2992 24.3212 3.33995 24.1582 3.42146C23.9982 3.49995 23.8684 3.61617 23.7688 3.77013C23.6692 3.92409 23.5967 4.11126 23.5514 4.33163C23.5062 4.55201 23.4835 4.80408 23.4835 5.08784V5.64482C23.4835 5.9316 23.5062 6.18669 23.5514 6.41008C23.5967 6.63348 23.6692 6.82215 23.7688 6.97611C23.8714 7.12705 24.0028 7.24177 24.1628 7.32026C24.3258 7.39874 24.522 7.43799 24.7514 7.43799ZM27.9212 0.863019V7.81836H27.4185V0.863019H27.9212ZM27.808 5.0652L27.5861 4.93389C27.5982 4.64408 27.645 4.37239 27.7265 4.11881C27.811 3.86523 27.9257 3.64183 28.0706 3.44863C28.2155 3.25241 28.3861 3.09996 28.5823 2.99128C28.7785 2.8826 28.9959 2.82826 29.2344 2.82826C29.4366 2.82826 29.6193 2.86147 29.7823 2.92789C29.9453 2.9943 30.0826 3.09845 30.1943 3.24033C30.3091 3.38222 30.3966 3.56787 30.457 3.7973C30.5174 4.02673 30.5475 4.30295 30.5475 4.62597V7.81836H30.0449V4.62144C30.0449 4.28635 30.0072 4.02371 29.9317 3.83353C29.8562 3.64334 29.7476 3.50901 29.6057 3.43052C29.4668 3.34901 29.2993 3.30826 29.103 3.30826C28.8947 3.30826 28.7106 3.3641 28.5506 3.4758C28.3936 3.5875 28.2593 3.7324 28.1476 3.91051C28.0389 4.08862 27.9559 4.28031 27.8985 4.48559C27.8412 4.68785 27.811 4.88106 27.808 5.0652ZM34.3739 6.93989V4.27277C34.3739 4.04334 34.3346 3.85768 34.2562 3.7158C34.1777 3.57089 34.0629 3.46523 33.912 3.39882C33.7611 3.33241 33.5754 3.2992 33.355 3.2992C33.1467 3.2992 32.9611 3.34146 32.7981 3.42599C32.6381 3.5075 32.5128 3.62221 32.4222 3.77013C32.3347 3.91504 32.2909 4.08258 32.2909 4.27277L31.7883 4.26824C31.7883 4.08107 31.826 3.90145 31.9015 3.72938C31.9769 3.55429 32.0841 3.40033 32.223 3.2675C32.3618 3.13166 32.5279 3.02449 32.7211 2.946C32.9173 2.86751 33.1347 2.82826 33.3731 2.82826C33.666 2.82826 33.9256 2.87506 34.152 2.96864C34.3784 3.06222 34.555 3.21618 34.6818 3.43052C34.8116 3.64485 34.8765 3.92862 34.8765 4.28182V6.78593C34.8765 6.958 34.8871 7.1346 34.9082 7.31573C34.9324 7.49686 34.9641 7.64478 35.0033 7.75949V7.81836H34.469C34.4358 7.7127 34.4116 7.57836 34.3965 7.41535C34.3814 7.24931 34.3739 7.09083 34.3739 6.93989ZM34.478 4.95653L34.4916 5.38671H33.6222C33.3867 5.38671 33.1799 5.41237 33.0018 5.46369C32.8237 5.51501 32.6743 5.58897 32.5535 5.68557C32.4358 5.78217 32.3468 5.89689 32.2864 6.02971C32.226 6.16254 32.1958 6.31348 32.1958 6.48254C32.1958 6.69989 32.2305 6.878 32.3 7.01687C32.3694 7.15271 32.4705 7.25384 32.6034 7.32026C32.7392 7.38365 32.9007 7.41535 33.0879 7.41535C33.3354 7.41535 33.5528 7.36705 33.7399 7.27045C33.9301 7.17082 34.0856 7.03951 34.2063 6.87649C34.3271 6.71046 34.4056 6.53536 34.4418 6.35122L34.5777 6.65914C34.5475 6.798 34.4916 6.93989 34.4101 7.08479C34.3286 7.22969 34.2229 7.36554 34.0931 7.49233C33.9633 7.6161 33.8094 7.71723 33.6313 7.79572C33.4531 7.87421 33.2524 7.91345 33.029 7.91345C32.7603 7.91345 32.5249 7.86213 32.3226 7.75949C32.1234 7.65685 31.9679 7.50138 31.8562 7.29309C31.7475 7.08479 31.6932 6.82819 31.6932 6.52329C31.6932 6.29688 31.7309 6.08858 31.8064 5.8984C31.8849 5.70821 32.0011 5.54369 32.1551 5.40482C32.309 5.26294 32.5022 5.15275 32.7347 5.07426C32.9671 4.99577 33.2373 4.95653 33.5452 4.95653H34.478ZM37.847 2.91883V3.37165H35.755V2.91883H37.847ZM36.5067 1.66451H37.0138V6.62291C37.0138 6.84932 37.038 7.01988 37.0863 7.1346C37.1346 7.24931 37.198 7.32629 37.2765 7.36554C37.355 7.40176 37.4395 7.41988 37.5301 7.41988C37.5995 7.41988 37.6644 7.41535 37.7248 7.40629C37.7882 7.39724 37.844 7.38516 37.8923 7.37007L37.9104 7.83194C37.8531 7.85609 37.7791 7.87421 37.6885 7.88628C37.601 7.90138 37.5074 7.90892 37.4078 7.90892C37.2387 7.90892 37.0863 7.86968 36.9504 7.79119C36.8146 7.70968 36.7059 7.57535 36.6244 7.38818C36.5459 7.20101 36.5067 6.94441 36.5067 6.61838V1.66451ZM41.9632 4.25918L42.8416 3.46674C43.0016 3.32486 43.133 3.17241 43.2356 3.00939C43.3382 2.84638 43.3896 2.65317 43.3896 2.42978C43.3896 2.21545 43.3247 2.02375 43.1949 1.8547C43.0681 1.68564 42.8869 1.60112 42.6515 1.60112C42.4794 1.60112 42.3345 1.64791 42.2168 1.74149C42.102 1.83508 42.0145 1.95885 41.9541 2.11281C41.8937 2.26677 41.8636 2.43582 41.8636 2.61997C41.8636 2.76487 41.8877 2.91581 41.936 3.07279C41.9873 3.22675 42.0598 3.38825 42.1534 3.55731C42.25 3.72334 42.3632 3.89843 42.493 4.08258L45.1737 7.81836H44.5714L42.3028 4.64861C42.1156 4.38899 41.9496 4.14899 41.8047 3.92862C41.6628 3.70825 41.5526 3.49391 41.4741 3.28561C41.3956 3.07732 41.3564 2.86147 41.3564 2.63808C41.3564 2.32714 41.4092 2.05998 41.5149 1.83659C41.6205 1.61017 41.7715 1.43659 41.9677 1.31584C42.1639 1.19207 42.3918 1.13018 42.6515 1.13018C42.905 1.13018 43.1224 1.19056 43.3035 1.31131C43.4847 1.42905 43.6235 1.58602 43.7201 1.78225C43.8167 1.97847 43.865 2.19582 43.865 2.43431C43.865 2.63053 43.8288 2.81317 43.7563 2.98222C43.6869 3.14826 43.5948 3.30071 43.4801 3.43957C43.3684 3.57844 43.2477 3.70372 43.1179 3.81542L42.09 4.7437C41.8786 4.952 41.7232 5.14218 41.6236 5.31426C41.5239 5.48633 41.4575 5.6418 41.4243 5.78066C41.3941 5.91651 41.379 6.03273 41.379 6.12933C41.379 6.36178 41.4228 6.57763 41.5104 6.77687C41.5979 6.97309 41.7322 7.13158 41.9134 7.25233C42.0975 7.37308 42.3285 7.43346 42.6062 7.43346C42.8386 7.43346 43.0635 7.37308 43.2809 7.25233C43.5013 7.12856 43.6975 6.95347 43.8696 6.72706C44.0416 6.49763 44.1775 6.22594 44.2771 5.91198C44.3797 5.59501 44.4311 5.24331 44.4311 4.85691H44.8929C44.8929 5.14369 44.8688 5.41388 44.8205 5.66746C44.7752 5.91802 44.7058 6.15047 44.6122 6.3648C44.5186 6.57914 44.4039 6.77536 44.268 6.95347C44.2469 6.98064 44.2318 7.00328 44.2228 7.02139C44.2167 7.03951 44.2016 7.06215 44.1775 7.08932C43.9782 7.3429 43.7397 7.54365 43.462 7.69157C43.1873 7.83647 42.902 7.90892 42.6062 7.90892C42.2469 7.90892 41.9375 7.83496 41.6779 7.68704C41.4213 7.53912 41.2221 7.33233 41.0802 7.06668C40.9413 6.798 40.8719 6.48706 40.8719 6.13386C40.8719 5.86821 40.9187 5.62821 41.0123 5.41388C41.1089 5.19954 41.2387 4.99879 41.4017 4.81162C41.5677 4.62446 41.7549 4.44031 41.9632 4.25918ZM48.2302 1.22528H50.037C50.4264 1.22528 50.7615 1.30075 51.0422 1.45169C51.326 1.59961 51.5434 1.81847 51.6943 2.10828C51.8483 2.39507 51.9253 2.74827 51.9253 3.16788C51.9253 3.47882 51.8709 3.76108 51.7622 4.01466C51.6536 4.26824 51.5026 4.47955 51.3094 4.64861C51.1192 4.81766 50.8958 4.93389 50.6392 4.99728L50.4672 5.07426H48.5834L48.5744 4.58974H50.123C50.4098 4.58974 50.6483 4.52333 50.8385 4.3905C51.0287 4.25465 51.1705 4.07956 51.2641 3.86523C51.3607 3.64787 51.409 3.41542 51.409 3.16788C51.409 2.86902 51.3562 2.61091 51.2505 2.39356C51.1479 2.1762 50.9939 2.00866 50.7887 1.89092C50.5864 1.77017 50.3358 1.7098 50.037 1.7098H48.751V7.81836H48.2302V1.22528ZM51.6128 7.81836L50.1955 4.86596L50.7479 4.86143L52.1652 7.75949V7.81836H51.6128ZM54.846 7.91345C54.5743 7.91345 54.3237 7.86968 54.0943 7.78213C53.8679 7.69157 53.6716 7.55572 53.5056 7.37459C53.3426 7.19045 53.2158 6.95951 53.1252 6.68178C53.0347 6.40103 52.9894 6.07047 52.9894 5.6901V5.12407C52.9894 4.71955 53.0377 4.37239 53.1343 4.08258C53.2309 3.78976 53.3607 3.55127 53.5237 3.36712C53.6897 3.17996 53.8784 3.04411 54.0897 2.95958C54.3011 2.87204 54.5245 2.82826 54.7599 2.82826C55.0286 2.82826 55.2641 2.87204 55.4663 2.95958C55.6716 3.04713 55.8437 3.17996 55.9825 3.35807C56.1214 3.53618 56.2256 3.76108 56.295 4.03277C56.3644 4.30144 56.3991 4.61993 56.3991 4.98822V5.40935H53.2928V4.93841H55.8965V4.81162C55.8905 4.49163 55.8452 4.21994 55.7607 3.99654C55.6791 3.77013 55.5554 3.59806 55.3893 3.48033C55.2263 3.35958 55.018 3.2992 54.7644 3.2992C54.5773 3.2992 54.4052 3.33392 54.2482 3.40335C54.0913 3.46976 53.9554 3.57542 53.8407 3.72032C53.729 3.86523 53.643 4.0539 53.5826 4.28635C53.5252 4.5188 53.4965 4.79804 53.4965 5.12407V5.6901C53.4965 5.98896 53.5282 6.24858 53.5916 6.46895C53.6581 6.68631 53.7516 6.86743 53.8724 7.01234C53.9931 7.15422 54.138 7.26139 54.3071 7.33384C54.4761 7.40327 54.6633 7.43799 54.8686 7.43799C55.1222 7.43799 55.3441 7.39573 55.5342 7.3112C55.7244 7.22365 55.8935 7.09234 56.0414 6.91724L56.3086 7.25233C56.218 7.37007 56.1063 7.48025 55.9735 7.58289C55.8407 7.68251 55.6822 7.76251 55.498 7.82289C55.3139 7.88326 55.0965 7.91345 54.846 7.91345ZM57.9614 3.92409V7.81836H57.4542V2.91883H57.9387L57.9614 3.92409ZM57.8663 5.0652L57.6263 4.93389C57.6384 4.64408 57.6821 4.37239 57.7576 4.11881C57.8361 3.86523 57.9433 3.64183 58.0791 3.44863C58.218 3.25241 58.387 3.09996 58.5863 2.99128C58.7855 2.8826 59.0119 2.82826 59.2655 2.82826C59.4647 2.82826 59.6444 2.86147 59.8044 2.92789C59.9674 2.99128 60.1077 3.09241 60.2255 3.23128C60.3432 3.36712 60.4338 3.54523 60.4972 3.76561C60.5606 3.98296 60.5923 4.24711 60.5923 4.55804V7.81836H60.0896V4.57616C60.0896 4.25314 60.0474 3.99956 59.9628 3.81542C59.8813 3.63127 59.7666 3.50146 59.6187 3.42599C59.4738 3.3475 59.3032 3.30826 59.107 3.30826C58.8806 3.30826 58.6889 3.3641 58.5319 3.4758C58.3749 3.5875 58.2482 3.7324 58.1516 3.91051C58.058 4.08862 57.9885 4.28031 57.9433 4.48559C57.898 4.68785 57.8723 4.88106 57.8663 5.0652ZM60.5877 4.63955L60.2481 4.65766C60.2602 4.41918 60.3055 4.19126 60.384 3.9739C60.4625 3.75353 60.5711 3.55882 60.71 3.38976C60.8489 3.21769 61.0149 3.08184 61.2081 2.98222C61.4043 2.87958 61.6262 2.82826 61.8737 2.82826C62.0881 2.82826 62.2798 2.86298 62.4488 2.93241C62.6179 2.99883 62.7598 3.10449 62.8745 3.24939C62.9922 3.39429 63.0813 3.57995 63.1416 3.80636C63.202 4.03277 63.2322 4.30446 63.2322 4.62144V7.81836H62.7251V4.61691C62.7251 4.27578 62.6828 4.01013 62.5983 3.81994C62.5168 3.62976 62.402 3.49693 62.2541 3.42146C62.1092 3.34297 61.9402 3.30524 61.747 3.30826C61.5568 3.30826 61.3892 3.35052 61.2443 3.43505C61.1024 3.51957 60.9832 3.62825 60.8866 3.76108C60.793 3.89089 60.7206 4.03428 60.6692 4.19126C60.6209 4.34522 60.5938 4.49465 60.5877 4.63955ZM64.3597 5.62217V5.11501C64.3597 4.7437 64.402 4.41616 64.4865 4.13239C64.5741 3.84862 64.6963 3.61014 64.8533 3.41693C65.0133 3.22071 65.2035 3.0743 65.4239 2.9777C65.6442 2.87808 65.8857 2.82826 66.1484 2.82826C66.4171 2.82826 66.6601 2.87808 66.8774 2.9777C67.0978 3.0743 67.2865 3.22071 67.4435 3.41693C67.6034 3.61014 67.7272 3.84862 67.8148 4.13239C67.9023 4.41616 67.9461 4.7437 67.9461 5.11501V5.62217C67.9461 5.99349 67.9023 6.32254 67.8148 6.60933C67.7272 6.89309 67.6034 7.13158 67.4435 7.32478C67.2865 7.51799 67.0978 7.6644 66.8774 7.76402C66.6601 7.86364 66.4186 7.91345 66.1529 7.91345C65.8873 7.91345 65.6442 7.86364 65.4239 7.76402C65.2065 7.6644 65.0178 7.51799 64.8578 7.32478C64.6978 7.12856 64.5741 6.88857 64.4865 6.6048C64.402 6.32103 64.3597 5.99349 64.3597 5.62217ZM64.8669 5.11501V5.62217C64.8669 5.90292 64.8941 6.15499 64.9484 6.37839C65.0058 6.60178 65.0903 6.79196 65.202 6.94894C65.3137 7.10592 65.448 7.22667 65.605 7.3112C65.765 7.39573 65.9476 7.43799 66.1529 7.43799C66.3703 7.43799 66.5589 7.39573 66.7189 7.3112C66.882 7.22667 67.0163 7.10592 67.1219 6.94894C67.2306 6.79196 67.3106 6.60178 67.3619 6.37839C67.4163 6.15499 67.4435 5.90292 67.4435 5.62217V5.11501C67.4435 4.8403 67.4148 4.59125 67.3574 4.36786C67.3001 4.14447 67.214 3.95428 67.0993 3.7973C66.9876 3.63731 66.8518 3.51504 66.6918 3.43052C66.5318 3.34297 66.3506 3.2992 66.1484 3.2992C65.9491 3.2992 65.7695 3.34297 65.6095 3.43052C65.4495 3.51504 65.3137 3.63731 65.202 3.7973C65.0933 3.95428 65.0103 4.14447 64.9529 4.36786C64.8956 4.59125 64.8669 4.8403 64.8669 5.11501ZM70.6947 2.91883V3.37165H68.6027V2.91883H70.6947ZM69.3544 1.66451H69.8615V6.62291C69.8615 6.84932 69.8857 7.01988 69.934 7.1346C69.9823 7.24931 70.0457 7.32629 70.1242 7.36554C70.2026 7.40176 70.2872 7.41988 70.3777 7.41988C70.4472 7.41988 70.5121 7.41535 70.5724 7.40629C70.6358 7.39724 70.6917 7.38516 70.74 7.37007L70.7581 7.83194C70.7007 7.85609 70.6268 7.87421 70.5362 7.88628C70.4487 7.90138 70.3551 7.90892 70.2555 7.90892C70.0864 7.90892 69.934 7.86968 69.7981 7.79119C69.6623 7.70968 69.5536 7.57535 69.4721 7.38818C69.3936 7.20101 69.3544 6.94441 69.3544 6.61838V1.66451ZM73.4207 7.91345C73.149 7.91345 72.8984 7.86968 72.669 7.78213C72.4426 7.69157 72.2464 7.55572 72.0803 7.37459C71.9173 7.19045 71.7905 6.95951 71.7 6.68178C71.6094 6.40103 71.5641 6.07047 71.5641 5.6901V5.12407C71.5641 4.71955 71.6124 4.37239 71.709 4.08258C71.8056 3.78976 71.9354 3.55127 72.0985 3.36712C72.2645 3.17996 72.4532 3.04411 72.6645 2.95958C72.8758 2.87204 73.0992 2.82826 73.3347 2.82826C73.6033 2.82826 73.8388 2.87204 74.0411 2.95958C74.2463 3.04713 74.4184 3.17996 74.5573 3.35807C74.6961 3.53618 74.8003 3.76108 74.8697 4.03277C74.9392 4.30144 74.9739 4.61993 74.9739 4.98822V5.40935H71.8675V4.93841H74.4712V4.81162C74.4652 4.49163 74.4199 4.21994 74.3354 3.99654C74.2539 3.77013 74.1301 3.59806 73.9641 3.48033C73.8011 3.35958 73.5928 3.2992 73.3392 3.2992C73.152 3.2992 72.9799 3.33392 72.823 3.40335C72.666 3.46976 72.5301 3.57542 72.4154 3.72032C72.3037 3.86523 72.2177 4.0539 72.1573 4.28635C72.1 4.5188 72.0713 4.79804 72.0713 5.12407V5.6901C72.0713 5.98896 72.103 6.24858 72.1664 6.46895C72.2328 6.68631 72.3264 6.86743 72.4471 7.01234C72.5679 7.15422 72.7128 7.26139 72.8818 7.33384C73.0509 7.40327 73.2381 7.43799 73.4433 7.43799C73.6969 7.43799 73.9188 7.39573 74.109 7.3112C74.2992 7.22365 74.4682 7.09234 74.6161 6.91724L74.8833 7.25233C74.7927 7.37007 74.681 7.48025 74.5482 7.58289C74.4154 7.68251 74.2569 7.76251 74.0728 7.82289C73.8886 7.88326 73.6713 7.91345 73.4207 7.91345ZM81.6802 5.75802H82.2009C82.1707 6.25009 82.0726 6.65612 81.9066 6.97611C81.7405 7.29309 81.5096 7.52855 81.2138 7.68251C80.9209 7.83647 80.5662 7.91345 80.1496 7.91345C79.8327 7.91345 79.5474 7.85157 79.2938 7.7278C79.0402 7.60402 78.8229 7.4244 78.6417 7.18894C78.4636 6.95347 78.3263 6.6697 78.2297 6.33763C78.1361 6.00254 78.0893 5.62519 78.0893 5.20558V3.79277C78.0893 3.3792 78.1361 3.00939 78.2297 2.68336C78.3263 2.35431 78.4651 2.07507 78.6463 1.84564C78.8304 1.61319 79.0508 1.43659 79.3074 1.31584C79.567 1.19509 79.8613 1.13471 80.1904 1.13471C80.5889 1.13471 80.9315 1.21018 81.2183 1.36112C81.5081 1.51206 81.736 1.74602 81.902 2.063C82.0711 2.37997 82.1707 2.78902 82.2009 3.29014H81.6802C81.653 2.88562 81.5805 2.5611 81.4628 2.31658C81.3451 2.07205 81.1806 1.89545 80.9692 1.78677C80.7609 1.67508 80.5013 1.61923 80.1904 1.61923C79.9338 1.61923 79.7074 1.66904 79.5112 1.76866C79.3179 1.86526 79.1534 2.00715 79.0176 2.19431C78.8847 2.37846 78.7836 2.60487 78.7142 2.87355C78.6448 3.1392 78.61 3.44259 78.61 3.78372V5.20558C78.61 5.54067 78.6432 5.84557 78.7097 6.12028C78.7761 6.39197 78.8727 6.62593 78.9995 6.82215C79.1293 7.01837 79.2893 7.16932 79.4795 7.27497C79.6727 7.37761 79.896 7.42893 80.1496 7.42893C80.4757 7.42893 80.7458 7.37761 80.9602 7.27497C81.1745 7.17233 81.3406 7.00026 81.4583 6.75876C81.576 6.51423 81.65 6.18065 81.6802 5.75802ZM83.1971 5.62217V5.11501C83.1971 4.7437 83.2394 4.41616 83.3239 4.13239C83.4114 3.84862 83.5337 3.61014 83.6907 3.41693C83.8507 3.22071 84.0409 3.0743 84.2612 2.9777C84.4816 2.87808 84.7231 2.82826 84.9858 2.82826C85.2544 2.82826 85.4974 2.87808 85.7148 2.9777C85.9352 3.0743 86.1238 3.22071 86.2808 3.41693C86.4408 3.61014 86.5646 3.84862 86.6521 4.13239C86.7397 4.41616 86.7835 4.7437 86.7835 5.11501V5.62217C86.7835 5.99349 86.7397 6.32254 86.6521 6.60933C86.5646 6.89309 86.4408 7.13158 86.2808 7.32478C86.1238 7.51799 85.9352 7.6644 85.7148 7.76402C85.4974 7.86364 85.2559 7.91345 84.9903 7.91345C84.7246 7.91345 84.4816 7.86364 84.2612 7.76402C84.0439 7.6644 83.8552 7.51799 83.6952 7.32478C83.5352 7.12856 83.4114 6.88857 83.3239 6.6048C83.2394 6.32103 83.1971 5.99349 83.1971 5.62217ZM83.7043 5.11501V5.62217C83.7043 5.90292 83.7314 6.15499 83.7858 6.37839C83.8431 6.60178 83.9277 6.79196 84.0394 6.94894C84.1511 7.10592 84.2854 7.22667 84.4424 7.3112C84.6024 7.39573 84.785 7.43799 84.9903 7.43799C85.2076 7.43799 85.3963 7.39573 85.5563 7.3112C85.7193 7.22667 85.8537 7.10592 85.9593 6.94894C86.068 6.79196 86.148 6.60178 86.1993 6.37839C86.2537 6.15499 86.2808 5.90292 86.2808 5.62217V5.11501C86.2808 4.8403 86.2521 4.59125 86.1948 4.36786C86.1374 4.14447 86.0514 3.95428 85.9367 3.7973C85.825 3.63731 85.6891 3.51504 85.5291 3.43052C85.3691 3.34297 85.188 3.2992 84.9858 3.2992C84.7865 3.2992 84.6069 3.34297 84.4469 3.43052C84.2869 3.51504 84.1511 3.63731 84.0394 3.7973C83.9307 3.95428 83.8477 4.14447 83.7903 4.36786C83.733 4.59125 83.7043 4.8403 83.7043 5.11501ZM90.6053 6.86743V0.863019H91.1079V7.81836H90.637L90.6053 6.86743ZM87.7616 5.59953V5.14218C87.7616 4.73163 87.7978 4.37993 87.8702 4.08711C87.9457 3.79127 88.0529 3.55127 88.1917 3.36712C88.3306 3.18298 88.4981 3.04713 88.6944 2.95958C88.8936 2.87204 89.1155 2.82826 89.36 2.82826C89.5985 2.82826 89.8068 2.87355 89.9849 2.96411C90.166 3.05166 90.32 3.17694 90.4468 3.33995C90.5736 3.50297 90.6762 3.69768 90.7547 3.92409C90.8332 4.14749 90.8906 4.39805 90.9268 4.67578V6.13839C90.8966 6.39801 90.8423 6.63649 90.7638 6.85385C90.6883 7.0712 90.5857 7.25837 90.4558 7.41535C90.3291 7.57233 90.1736 7.69459 89.9894 7.78213C89.8053 7.86968 89.591 7.91345 89.3464 7.91345C89.1049 7.91345 88.8861 7.86666 88.6898 7.77308C88.4966 7.67949 88.3306 7.53761 88.1917 7.34742C88.0529 7.15724 87.9457 6.91724 87.8702 6.62744C87.7978 6.33763 87.7616 5.995 87.7616 5.59953ZM88.2687 5.14218V5.59953C88.2687 5.91349 88.2914 6.18518 88.3366 6.41461C88.3849 6.64404 88.4574 6.83423 88.554 6.98517C88.6536 7.13309 88.7774 7.24479 88.9253 7.32026C89.0732 7.39271 89.2483 7.42893 89.4506 7.42893C89.7072 7.42893 89.9215 7.3761 90.0936 7.27045C90.2657 7.16177 90.403 7.01988 90.5057 6.84479C90.6113 6.66668 90.6883 6.47197 90.7366 6.26065V4.58521C90.7064 4.44031 90.6611 4.2939 90.6007 4.14598C90.5434 3.99504 90.4664 3.85617 90.3698 3.72938C90.2732 3.60259 90.1494 3.50146 89.9985 3.42599C89.8506 3.3475 89.671 3.30826 89.4596 3.30826C89.2544 3.30826 89.0763 3.34599 88.9253 3.42146C88.7744 3.49391 88.6506 3.60561 88.554 3.75655C88.4574 3.90749 88.3849 4.09767 88.3366 4.3271C88.2914 4.55352 88.2687 4.82521 88.2687 5.14218ZM94.0875 7.91345C93.8158 7.91345 93.5652 7.86968 93.3358 7.78213C93.1094 7.69157 92.9132 7.55572 92.7471 7.37459C92.5841 7.19045 92.4573 6.95951 92.3668 6.68178C92.2762 6.40103 92.2309 6.07047 92.2309 5.6901V5.12407C92.2309 4.71955 92.2792 4.37239 92.3758 4.08258C92.4724 3.78976 92.6022 3.55127 92.7652 3.36712C92.9313 3.17996 93.1199 3.04411 93.3313 2.95958C93.5426 2.87204 93.766 2.82826 94.0014 2.82826C94.2701 2.82826 94.5056 2.87204 94.7078 2.95958C94.9131 3.04713 95.0852 3.17996 95.2241 3.35807C95.3629 3.53618 95.4671 3.76108 95.5365 4.03277C95.6059 4.30144 95.6407 4.61993 95.6407 4.98822V5.40935H92.5343V4.93841H95.138V4.81162C95.132 4.49163 95.0867 4.21994 95.0022 3.99654C94.9207 3.77013 94.7969 3.59806 94.6309 3.48033C94.4678 3.35958 94.2595 3.2992 94.006 3.2992C93.8188 3.2992 93.6467 3.33392 93.4897 3.40335C93.3328 3.46976 93.1969 3.57542 93.0822 3.72032C92.9705 3.86523 92.8845 4.0539 92.8241 4.28635C92.7667 4.5188 92.7381 4.79804 92.7381 5.12407V5.6901C92.7381 5.98896 92.7698 6.24858 92.8332 6.46895C92.8996 6.68631 92.9932 6.86743 93.1139 7.01234C93.2347 7.15422 93.3796 7.26139 93.5486 7.33384C93.7177 7.40327 93.9048 7.43799 94.1101 7.43799C94.3637 7.43799 94.5856 7.39573 94.7758 7.3112C94.9659 7.22365 95.135 7.09234 95.2829 6.91724L95.5501 7.25233C95.4595 7.37007 95.3478 7.48025 95.215 7.58289C95.0822 7.68251 94.9237 7.76251 94.7395 7.82289C94.5554 7.88326 94.338 7.91345 94.0875 7.91345ZM97.221 3.72485V7.81836H96.7184V2.91883H97.2074L97.221 3.72485ZM98.6474 2.88713L98.6338 3.38976C98.5795 3.37769 98.5281 3.37014 98.4798 3.36712C98.4315 3.36108 98.3787 3.35807 98.3214 3.35807C98.1312 3.35807 97.9651 3.40033 97.8233 3.48486C97.6814 3.56938 97.5606 3.68863 97.461 3.84259C97.3644 3.99353 97.2889 4.17013 97.2346 4.37239C97.1833 4.57163 97.1531 4.78747 97.144 5.01992L96.9674 5.0969C96.9674 4.77993 96.9946 4.48408 97.0489 4.20937C97.1033 3.93466 97.1863 3.69315 97.298 3.48486C97.4127 3.27656 97.5561 3.11505 97.7282 3.00034C97.9033 2.88562 98.1085 2.82826 98.344 2.82826C98.3983 2.82826 98.4542 2.8343 98.5115 2.84638C98.5719 2.85543 98.6172 2.86902 98.6474 2.88713ZM105.811 3.81089V5.23728C105.811 5.66897 105.761 6.05235 105.662 6.38744C105.565 6.71951 105.423 6.99875 105.236 7.22516C105.052 7.45157 104.828 7.62365 104.566 7.74138C104.306 7.85609 104.012 7.91345 103.683 7.91345C103.36 7.91345 103.067 7.85609 102.804 7.74138C102.542 7.62365 102.317 7.45157 102.13 7.22516C101.942 6.99875 101.798 6.71951 101.695 6.38744C101.595 6.05235 101.545 5.66897 101.545 5.23728V3.81089C101.545 3.37618 101.595 2.99128 101.695 2.65619C101.795 2.3211 101.936 2.04186 102.121 1.81847C102.308 1.59508 102.533 1.42603 102.795 1.31131C103.058 1.19358 103.351 1.13471 103.674 1.13471C104.006 1.13471 104.303 1.19358 104.566 1.31131C104.828 1.42603 105.052 1.59508 105.236 1.81847C105.423 2.04186 105.565 2.3211 105.662 2.65619C105.761 2.99128 105.811 3.37618 105.811 3.81089ZM105.295 5.23728V3.80183C105.295 3.44259 105.259 3.12713 105.186 2.85543C105.117 2.58374 105.014 2.35733 104.878 2.1762C104.742 1.99507 104.573 1.85923 104.371 1.76866C104.169 1.6781 103.936 1.63282 103.674 1.63282C103.42 1.63282 103.192 1.6781 102.99 1.76866C102.791 1.85923 102.622 1.99658 102.483 2.18073C102.347 2.36186 102.243 2.58827 102.17 2.85996C102.098 3.12864 102.062 3.44259 102.062 3.80183V5.23728C102.062 5.59953 102.098 5.91651 102.17 6.1882C102.246 6.45688 102.353 6.68329 102.492 6.86743C102.631 7.04856 102.8 7.18441 102.999 7.27497C103.201 7.36554 103.429 7.41082 103.683 7.41082C103.945 7.41082 104.176 7.36554 104.376 7.27497C104.578 7.18441 104.747 7.04856 104.883 6.86743C105.019 6.68329 105.121 6.45688 105.191 6.1882C105.26 5.91651 105.295 5.59953 105.295 5.23728ZM107.591 3.96485V7.81836H107.088V2.91883H107.568L107.591 3.96485ZM107.477 5.0652L107.256 4.93389C107.268 4.64408 107.314 4.37239 107.396 4.11881C107.48 3.86523 107.595 3.64183 107.74 3.44863C107.885 3.25241 108.056 3.09996 108.252 2.99128C108.448 2.8826 108.665 2.82826 108.904 2.82826C109.106 2.82826 109.289 2.86147 109.452 2.92789C109.615 2.9943 109.752 3.09845 109.864 3.24033C109.979 3.38222 110.066 3.56787 110.126 3.7973C110.187 4.02673 110.217 4.30295 110.217 4.62597V7.81836H109.714V4.62144C109.714 4.28635 109.677 4.02371 109.601 3.83353C109.526 3.64334 109.417 3.50901 109.275 3.43052C109.136 3.34901 108.969 3.30826 108.772 3.30826C108.564 3.30826 108.38 3.3641 108.22 3.4758C108.063 3.5875 107.929 3.7324 107.817 3.91051C107.708 4.08862 107.625 4.28031 107.568 4.48559C107.511 4.68785 107.48 4.88106 107.477 5.0652ZM113.183 7.81836H111.947L111.951 7.33384H113.183C113.578 7.33384 113.915 7.25082 114.193 7.08479C114.47 6.91875 114.682 6.67574 114.827 6.35575C114.975 6.03575 115.049 5.64482 115.049 5.18294V3.84711C115.049 3.49693 115.006 3.18901 114.922 2.92336C114.84 2.65468 114.72 2.43129 114.56 2.25318C114.403 2.07205 114.211 1.93621 113.984 1.84564C113.758 1.75508 113.503 1.7098 113.219 1.7098H111.92V1.22528H113.219C113.569 1.22528 113.886 1.28263 114.17 1.39735C114.457 1.51206 114.704 1.68112 114.913 1.90451C115.121 2.1279 115.281 2.40412 115.393 2.73317C115.504 3.0592 115.56 3.43354 115.56 3.85617V5.18294C115.56 5.60859 115.504 5.98594 115.393 6.31499C115.281 6.64102 115.121 6.91573 114.913 7.13913C114.704 7.36252 114.454 7.53157 114.161 7.64629C113.871 7.761 113.545 7.81836 113.183 7.81836ZM112.191 1.22528V7.81836H111.671V1.22528H112.191ZM118.467 7.91345C118.196 7.91345 117.945 7.86968 117.716 7.78213C117.489 7.69157 117.293 7.55572 117.127 7.37459C116.964 7.19045 116.837 6.95951 116.747 6.68178C116.656 6.40103 116.611 6.07047 116.611 5.6901V5.12407C116.611 4.71955 116.659 4.37239 116.756 4.08258C116.852 3.78976 116.982 3.55127 117.145 3.36712C117.311 3.17996 117.5 3.04411 117.711 2.95958C117.922 2.87204 118.146 2.82826 118.381 2.82826C118.65 2.82826 118.885 2.87204 119.088 2.95958C119.293 3.04713 119.465 3.17996 119.604 3.35807C119.743 3.53618 119.847 3.76108 119.916 4.03277C119.986 4.30144 120.021 4.61993 120.021 4.98822V5.40935H116.914V4.93841H119.518V4.81162C119.512 4.49163 119.467 4.21994 119.382 3.99654C119.301 3.77013 119.177 3.59806 119.011 3.48033C118.848 3.35958 118.639 3.2992 118.386 3.2992C118.199 3.2992 118.027 3.33392 117.87 3.40335C117.713 3.46976 117.577 3.57542 117.462 3.72032C117.35 3.86523 117.264 4.0539 117.204 4.28635C117.147 4.5188 117.118 4.79804 117.118 5.12407V5.6901C117.118 5.98896 117.15 6.24858 117.213 6.46895C117.279 6.68631 117.373 6.86743 117.494 7.01234C117.615 7.15422 117.759 7.26139 117.929 7.33384C118.098 7.40327 118.285 7.43799 118.49 7.43799C118.744 7.43799 118.965 7.39573 119.156 7.3112C119.346 7.22365 119.515 7.09234 119.663 6.91724L119.93 7.25233C119.839 7.37007 119.728 7.48025 119.595 7.58289C119.462 7.68251 119.304 7.76251 119.119 7.82289C118.935 7.88326 118.718 7.91345 118.467 7.91345ZM121.583 3.92409V7.81836H121.076V2.91883H121.56L121.583 3.92409ZM121.488 5.0652L121.248 4.93389C121.26 4.64408 121.304 4.37239 121.379 4.11881C121.458 3.86523 121.565 3.64183 121.701 3.44863C121.839 3.25241 122.008 3.09996 122.208 2.99128C122.407 2.8826 122.633 2.82826 122.887 2.82826C123.086 2.82826 123.266 2.86147 123.426 2.92789C123.589 2.99128 123.729 3.09241 123.847 3.23128C123.965 3.36712 124.055 3.54523 124.119 3.76561C124.182 3.98296 124.214 4.24711 124.214 4.55804V7.81836H123.711V4.57616C123.711 4.25314 123.669 3.99956 123.584 3.81542C123.503 3.63127 123.388 3.50146 123.24 3.42599C123.095 3.3475 122.925 3.30826 122.728 3.30826C122.502 3.30826 122.31 3.3641 122.153 3.4758C121.996 3.5875 121.87 3.7324 121.773 3.91051C121.679 4.08862 121.61 4.28031 121.565 4.48559C121.519 4.68785 121.494 4.88106 121.488 5.0652ZM124.209 4.63955L123.87 4.65766C123.882 4.41918 123.927 4.19126 124.005 3.9739C124.084 3.75353 124.193 3.55882 124.331 3.38976C124.47 3.21769 124.636 3.08184 124.83 2.98222C125.026 2.87958 125.248 2.82826 125.495 2.82826C125.71 2.82826 125.901 2.86298 126.07 2.93241C126.239 2.99883 126.381 3.10449 126.496 3.24939C126.614 3.39429 126.703 3.57995 126.763 3.80636C126.823 4.03277 126.854 4.30446 126.854 4.62144V7.81836H126.346V4.61691C126.346 4.27578 126.304 4.01013 126.22 3.81994C126.138 3.62976 126.023 3.49693 125.876 3.42146C125.731 3.34297 125.562 3.30524 125.368 3.30826C125.178 3.30826 125.011 3.35052 124.866 3.43505C124.724 3.51957 124.605 3.62825 124.508 3.76108C124.414 3.89089 124.342 4.03428 124.291 4.19126C124.242 4.34522 124.215 4.49465 124.209 4.63955ZM130.662 6.93989V4.27277C130.662 4.04334 130.623 3.85768 130.544 3.7158C130.466 3.57089 130.351 3.46523 130.2 3.39882C130.049 3.33241 129.863 3.2992 129.643 3.2992C129.435 3.2992 129.249 3.34146 129.086 3.42599C128.926 3.5075 128.801 3.62221 128.71 3.77013C128.623 3.91504 128.579 4.08258 128.579 4.27277L128.076 4.26824C128.076 4.08107 128.114 3.90145 128.189 3.72938C128.265 3.55429 128.372 3.40033 128.511 3.2675C128.65 3.13166 128.816 3.02449 129.009 2.946C129.205 2.86751 129.423 2.82826 129.661 2.82826C129.954 2.82826 130.214 2.87506 130.44 2.96864C130.666 3.06222 130.843 3.21618 130.97 3.43052C131.1 3.64485 131.165 3.92862 131.165 4.28182V6.78593C131.165 6.958 131.175 7.1346 131.196 7.31573C131.22 7.49686 131.252 7.64478 131.291 7.75949V7.81836H130.757C130.724 7.7127 130.7 7.57836 130.685 7.41535C130.669 7.24931 130.662 7.09083 130.662 6.93989ZM130.766 4.95653L130.78 5.38671H129.91C129.675 5.38671 129.468 5.41237 129.29 5.46369C129.112 5.51501 128.962 5.58897 128.842 5.68557C128.724 5.78217 128.635 5.89689 128.574 6.02971C128.514 6.16254 128.484 6.31348 128.484 6.48254C128.484 6.69989 128.519 6.878 128.588 7.01687C128.657 7.15271 128.759 7.25384 128.891 7.32026C129.027 7.38365 129.189 7.41535 129.376 7.41535C129.623 7.41535 129.841 7.36705 130.028 7.27045C130.218 7.17082 130.374 7.03951 130.494 6.87649C130.615 6.71046 130.694 6.53536 130.73 6.35122L130.866 6.65914C130.835 6.798 130.78 6.93989 130.698 7.08479C130.617 7.22969 130.511 7.36554 130.381 7.49233C130.251 7.6161 130.097 7.71723 129.919 7.79572C129.741 7.87421 129.54 7.91345 129.317 7.91345C129.048 7.91345 128.813 7.86213 128.611 7.75949C128.411 7.65685 128.256 7.50138 128.144 7.29309C128.036 7.08479 127.981 6.82819 127.981 6.52329C127.981 6.29688 128.019 6.08858 128.094 5.8984C128.173 5.70821 128.289 5.54369 128.443 5.40482C128.597 5.26294 128.79 5.15275 129.023 5.07426C129.255 4.99577 129.525 4.95653 129.833 4.95653H130.766ZM133.048 3.96485V7.81836H132.546V2.91883H133.026L133.048 3.96485ZM132.935 5.0652L132.713 4.93389C132.725 4.64408 132.772 4.37239 132.854 4.11881C132.938 3.86523 133.053 3.64183 133.198 3.44863C133.343 3.25241 133.513 3.09996 133.709 2.99128C133.906 2.8826 134.123 2.82826 134.361 2.82826C134.564 2.82826 134.746 2.86147 134.909 2.92789C135.072 2.9943 135.21 3.09845 135.321 3.24033C135.436 3.38222 135.524 3.56787 135.584 3.7973C135.644 4.02673 135.675 4.30295 135.675 4.62597V7.81836H135.172V4.62144C135.172 4.28635 135.134 4.02371 135.059 3.83353C134.983 3.64334 134.875 3.50901 134.733 3.43052C134.594 3.34901 134.426 3.30826 134.23 3.30826C134.022 3.30826 133.838 3.3641 133.678 3.4758C133.521 3.5875 133.386 3.7324 133.275 3.91051C133.166 4.08862 133.083 4.28031 133.026 4.48559C132.968 4.68785 132.938 4.88106 132.935 5.0652ZM139.682 6.86743V0.863019H140.185V7.81836H139.714L139.682 6.86743ZM136.838 5.59953V5.14218C136.838 4.73163 136.875 4.37993 136.947 4.08711C137.023 3.79127 137.13 3.55127 137.269 3.36712C137.407 3.18298 137.575 3.04713 137.771 2.95958C137.97 2.87204 138.192 2.82826 138.437 2.82826C138.675 2.82826 138.884 2.87355 139.062 2.96411C139.243 3.05166 139.397 3.17694 139.524 3.33995C139.65 3.50297 139.753 3.69768 139.832 3.92409C139.91 4.14749 139.967 4.39805 140.004 4.67578V6.13839C139.973 6.39801 139.919 6.63649 139.841 6.85385C139.765 7.0712 139.662 7.25837 139.533 7.41535C139.406 7.57233 139.25 7.69459 139.066 7.78213C138.882 7.86968 138.668 7.91345 138.423 7.91345C138.182 7.91345 137.963 7.86666 137.767 7.77308C137.573 7.67949 137.407 7.53761 137.269 7.34742C137.13 7.15724 137.023 6.91724 136.947 6.62744C136.875 6.33763 136.838 5.995 136.838 5.59953ZM137.346 5.14218V5.59953C137.346 5.91349 137.368 6.18518 137.413 6.41461C137.462 6.64404 137.534 6.83423 137.631 6.98517C137.73 7.13309 137.854 7.24479 138.002 7.32026C138.15 7.39271 138.325 7.42893 138.527 7.42893C138.784 7.42893 138.998 7.3761 139.17 7.27045C139.342 7.16177 139.48 7.01988 139.582 6.84479C139.688 6.66668 139.765 6.47197 139.813 6.26065V4.58521C139.783 4.44031 139.738 4.2939 139.678 4.14598C139.62 3.99504 139.543 3.85617 139.447 3.72938C139.35 3.60259 139.226 3.50146 139.075 3.42599C138.927 3.3475 138.748 3.30826 138.536 3.30826C138.331 3.30826 138.153 3.34599 138.002 3.42146C137.851 3.49391 137.727 3.60561 137.631 3.75655C137.534 3.90749 137.462 4.09767 137.413 4.3271C137.368 4.55352 137.346 4.82521 137.346 5.14218Z" fill="black"/>
</svg>
